<?xml version="1.0" standalone="no"?>
<!DOCTYPE svg PUBLIC "-//W3C//DTD SVG 1.1//EN" "http://www.w3.org/Graphics/SVG/1.1/DTD/svg11.dtd" >
<svg xmlns="http://www.w3.org/2000/svg">
<metadata></metadata>
<defs>
<font id="rock_collectionregular" horiz-adv-x="1024" >
<font-face units-per-em="2048" ascent="1638" descent="-410" />
<missing-glyph horiz-adv-x="500" />
<glyph horiz-adv-x="2048" />
<glyph horiz-adv-x="2048" />
<glyph unicode="&#xd;" horiz-adv-x="512" />
<glyph unicode="!" horiz-adv-x="682" d="M228 1249q0 63 33 101t80 38t80 -38t33 -113q0 -18 -1 -29q-1 -16 -3 -39l-89 -810h-38l-88 810q-5 41 -5 47q-2 26 -2 33zM230 83q0 45 33 78t79 33t79 -33t33 -78q0 -46 -33 -79t-79 -33t-79 33t-33 79z" />
<glyph unicode="&#x22;" horiz-adv-x="836" d="M133 1266q0 64 27 93t72 29q44 0 72 -30q29 -31 29 -79q0 -20 -6 -65q-5 -38 -20 -116l-54 -295h-42l-55 296q-14 82 -17 103q-6 42 -6 64zM498 1242v24q0 64 28 92q29 29 75 29q43 0 72 -29t29 -78q0 -36 -5 -88q-5 -46 -15 -96l-57 -293h-49l-54 292l-22 121 q-2 18 -2 26z" />
<glyph unicode="#" d="M37 427v82h187l69 343h-256v80h275l91 455h83l-91 -455h337l97 455h83l-95 -455h170v-80h-185l-70 -343h255v-82h-272l-93 -455h-81l91 455h-339l-95 -455h-83l93 455h-171zM308 509h339l72 343h-341z" />
<glyph unicode="$" d="M108 48l1 283h44q10 -136 86 -210q75 -73 224 -87v584q-110 69 -187 132q-76 62 -113 114q-25 38 -39 84q-14 48 -14 101q0 123 92 215t261 111v92h64v-92q41 -1 75 -6t63 -12q15 -3 63 -21q84 -32 129 -49v-299h-39q-13 159 -83 233q-69 73 -209 87v-508 q251 -175 324 -260q72 -84 72 -208q0 -138 -105 -243q-104 -104 -291 -121v-128h-64v128q-97 5 -175 22q-85 19 -179 58zM265 1115q0 -72 44 -136q43 -63 153 -135v465q-101 -12 -149 -63t-48 -129v-2zM526 34q42 8 66 16q28 9 48 21q56 35 89 92t33 121q0 66 -39 125 t-197 167v-542z" />
<glyph unicode="%" horiz-adv-x="1706" d="M71 1018q0 107 40 194q41 88 111 132l-2 1q37 22 70 32q38 11 72 11q135 0 210 -112t75 -258q0 -174 -84 -269t-202 -95q-78 0 -145 44q-66 44 -105 129q-20 44 -30 91q-10 46 -10 100zM227 1020q0 -70 6 -122q6 -49 17 -90q10 -29 22 -48q14 -22 31 -36q11 -10 24 -14 q15 -5 28 -5q25 0 45 13q22 14 38 39q26 40 38 103q12 64 12 154q0 94 -12 162t-37 105l-3 1q-17 26 -36 38t-44 12q-51 0 -90 -60t-39 -252zM313 -55l988 1443h89l-988 -1443h-89zM1056 310q0 105 39 192q39 86 108 130l2 -2q35 22 69 33q36 11 69 11q71 0 141 -45 q71 -45 110 -131q20 -45 29 -90q9 -46 9 -99q0 -178 -85 -270q-85 -93 -201 -93q-73 0 -142 45t-108 129q-19 40 -30 89q-10 46 -10 101zM1213 302q0 -89 12 -152q12 -62 35 -99q16 -25 38 -39q20 -13 45 -13q22 0 44 14q20 13 39 41q24 38 36 100q12 63 12 152 q0 94 -12 160q-12 65 -36 103v3q-17 27 -37 38q-21 12 -46 12q-23 0 -45 -14q-20 -13 -39 -41q-22 -33 -34 -101q-12 -66 -12 -164z" />
<glyph unicode="&#x26;" horiz-adv-x="1593" d="M74 267q0 122 87 242t327 249q-46 103 -63 170q-17 68 -17 128q0 84 32 150q32 65 95 110q51 35 105 53q56 18 117 18q118 0 194 -71q75 -70 75 -174q0 -106 -72 -186q-72 -79 -257 -174q69 -120 130 -216q66 -104 135 -198q88 104 132 194t44 161q0 22 -8 44 q-7 20 -23 39q-10 13 -26 21q-15 7 -36 9l3 37h420v-37q-87 -8 -129 -39q-41 -30 -130 -191q-42 -77 -93 -154q-50 -75 -105 -144q89 -105 159 -146q70 -42 141 -42q68 0 117 38t68 111l37 -27q-37 -140 -120 -208q-82 -67 -192 -67q-83 0 -167 45q-86 46 -185 151 q-125 -110 -224 -152t-212 -42q-165 0 -262 88t-97 210zM287 360q0 -107 69 -188t186 -81l-1 -1q65 0 122 25q59 25 159 108q-130 177 -183 263q-47 76 -112 206q-119 -69 -180 -152q-60 -82 -60 -180zM582 1135l2 1q0 -48 17 -110q17 -61 66 -179q124 58 186 134t62 167 q0 72 -45 119t-111 47q-87 0 -132 -60t-45 -119z" />
<glyph unicode="'" horiz-adv-x="369" d="M80 1266q0 64 26 93t71 29t75 -30t30 -78q0 -18 -6 -63q-5 -37 -20 -119l-54 -295h-45l-54 296q-13 77 -17 104q-6 42 -6 63z" />
<glyph unicode="(" horiz-adv-x="682" d="M84 495q0 311 153 566q153 256 399 365v-42q-122 -67 -202 -186q-79 -117 -118 -300q-19 -89 -30 -185q-10 -90 -10 -194q0 -107 9 -204q9 -103 25 -186q26 -138 63 -222q39 -86 100 -161l1 3q32 -39 72 -75q43 -38 90 -71v-37q-73 36 -138 83q-63 45 -114 96 q-144 145 -222 342t-78 408z" />
<glyph unicode=")" horiz-adv-x="682" d="M44 -399q124 69 203 186q80 118 119 299q20 94 29 185q9 95 9 192q0 100 -8 204q-8 97 -24 186q-26 139 -63 221t-99 159l-1 4q-31 39 -72 75q-41 37 -92 71v42q80 -39 140 -82q65 -46 113 -96q143 -146 221 -342q78 -197 78 -410q0 -311 -153 -566q-154 -256 -400 -365 v37z" />
<glyph unicode="*" d="M143 840q0 26 21 53t62 45q15 7 44 14q30 8 78 18q26 6 62 17q32 10 59 21q-26 13 -59 24q-32 10 -69 18q-66 15 -99 25q-40 13 -53 22q-22 16 -34 36q-12 19 -12 42q0 27 23 50t53 23q32 0 70 -21q37 -21 93 -84l-5 1q30 -34 57 -56q28 -24 57 -42q-1 34 -9 69 q-8 38 -19 69q-19 56 -26 84q-9 35 -9 52q0 52 24 79t60 27q32 0 54 -27q23 -28 23 -77q0 -45 -27 -126t-33 -149q30 19 53 39q28 25 47 46q67 79 101 99q32 19 67 19q33 0 56 -23t23 -54q0 -37 -33 -66t-165 -57q-38 -8 -69 -18t-57 -21q26 -13 57 -24t69 -18 q122 -23 159 -55q38 -33 38 -72q0 -29 -23 -52q-22 -22 -53 -22q-30 0 -66 21q-38 22 -98 94q-19 25 -45 48q-28 25 -57 44q2 -32 7 -60q7 -36 16 -66q18 -59 27 -99t9 -63q0 -41 -24 -68t-51 -27q-17 0 -35 8t-32 21q-10 10 -16 27q-6 16 -6 39q0 47 23 116q24 73 29 93 q3 13 6 31q4 25 5 45q-29 -20 -54 -42q-28 -25 -48 -46q-36 -40 -63 -66q-26 -25 -47 -36q-13 -8 -27 -12q-12 -4 -27 -4q-33 0 -58 23q-24 23 -24 51z" />
<glyph unicode="+" horiz-adv-x="1155" d="M37 640v82h498v497h80v-497h500v-82h-500v-499h-80v499h-498z" />
<glyph unicode="," horiz-adv-x="512" d="M108 -301q103 34 160 106t57 152q0 7 -2 17q-1 8 -6 15q-2 3 -6 7q-3 3 -8 3q-4 0 -17 -5q-10 -4 -31 -15q-9 -5 -18 -6q-12 -2 -20 -2q-49 0 -78 29t-29 80q0 49 38 84t92 35q66 0 117 -57t51 -152l-1 -3q0 -103 -72 -192t-227 -140v44z" />
<glyph unicode="." horiz-adv-x="512" d="M145 83l2 2q0 47 33 78q34 32 79 32q47 0 78 -33q32 -34 32 -79q0 -46 -33 -79t-79 -33t-79 33t-33 79z" />
<glyph unicode="/" horiz-adv-x="569" d="M3 -28l491 1450h80l-491 -1450h-80z" />
<glyph unicode="0" d="M-36 939q30 72 89 215q89 215 506 17l-1 -2q68 -43 204 -128q205 -128 254 -264q50 -136 -43 -336l-93 -201l-129 -114q-130 -114 -416 16q-287 131 -329 464z" />
<glyph unicode="1" d="M48 745l42 97q39 48 116 144q120 150 261 311l2 5q146 167 233 41l87 -126q47 -63 104 -273q57 -212 78 -381q21 -171 5 -225q-16 -55 -74 -108q-58 -52 -114 -114l-55 -62q-78 -116 -137 -111l-59 5q-145 42 -177 95l-32 53q-21 38 -62 114q-58 107 -161 276 q-99 162 -57 259z" />
<glyph unicode="2" d="M160 529q6 45 95 231l-1 1q88 186 248 219l159 33q111 23 135 -33l24 -56q68 -96 36 -141q-32 -46 -54 -65q-22 -20 -126 -126t-192 -138q-90 -32 -187 -29q-98 3 -121 30q-22 27 -16 74z" />
<glyph unicode="3" d="M-35 837l30 79h594l426 -49l30 -49l-30 -70v-69q-65 -42 -196 -126q-196 -126 -507 -103l-193 -2l-104 210z" />
<glyph unicode="4" d="M192 780q-36 61 14 96l50 35q30 20 89 59q86 57 177 137l-3 3q88 78 153 46l64 -32q6 -5 18 -14q16 -12 60 -56q42 -40 9 -156q-34 -119 -44 -195q-10 -72 -16 -198q-6 -119 -27 -193q-20 -74 -69 -66q-49 7 -132 65q-85 59 -195 232q-104 162 -148 237z" />
<glyph unicode="5" d="M328 826l26 57l24 29l148 40l90 -39l59 -169l30 -218l-179 -59l-69 29z" />
<glyph unicode="6" d="M-1 910q44 66 224 98q170 30 236 44q55 14 69 3l14 -11l34 -58q56 6 78 -18l22 -24l100 -134q34 -39 101 -116q101 -116 126 -159q26 -44 21 -47l-4 -3l-33 -18q-33 -18 -33 -24q0 -8 -46 -21l-46 -14q-33 -8 -99 -25l-93 -25q6 0 -96 -21q-104 -21 -146 -46 q-22 -13 -33.5 -17t-13.5 0l-3 9q-6 6 -19 18t-33 32q-13 13 -39 52l-27 40l-225 392z" />
<glyph unicode="7" d="M280 794l40 59l30 -9l138 -10l45 10l64 23l70 9l39 -9l60 -172l20 -40v-89l-40 -30l-39 -49l-357 -20l-40 59z" />
<glyph unicode="8" d="M198 939q-12 46 19 67t153 -24l121 -45q44 -18 131 -53q130 -52 204 -156t33 -140l-40 -36q-36 -16 -60 -51l-24 -34q-61 -83 -129 -114t-192 -27q-125 5 -128 128q-3 124 -19 184l-1 2q-17 62 -36 151q-20 94 -20 96q0 5 -12 52z" />
<glyph unicode="9" d="M193 739l49 238q19 7 56 20q56 20 182 -39q17 -8 51 -23q51 -23 147 -36q68 -11 123 -70l56 -60l-1 1l-21 -144q-21 -143 -87 -169q-12 -4 -35 -11q-35 -11 -35 -33l-276 30q-277 30 -209 296z" />
<glyph unicode=":" horiz-adv-x="569" d="M175 83q0 46 33 79t79 33q47 0 80 -33t33 -79t-33 -79t-79 -33t-79 33t-33 79h-1zM178 833q0 46 33 79t79 33t79 -33t33 -79t-33 -79t-79 -33t-79 33t-33 79z" />
<glyph unicode="&#x3c;" horiz-adv-x="1155" d="M37 657v49l1076 466v-87l-926 -402l926 -406v-90z" />
<glyph unicode="=" horiz-adv-x="1155" d="M37 475v82h1079v-82h-1079zM37 801v82h1079v-82h-1079z" />
<glyph unicode="&#x3e;" horiz-adv-x="1155" d="M37 187v86l927 402l-927 406v91l1076 -470v-49z" />
<glyph unicode="?" horiz-adv-x="909" d="M91 1098q0 113 97 200q98 87 264 87q104 0 180 -30t124 -90q36 -43 54 -92q18 -48 18 -102q0 -73 -33 -150q-33 -78 -124 -180l1 -3q-144 -162 -178 -233q-32 -68 -40 -189h-41q7 124 32 209q24 81 101 230q60 112 78 173q18 60 18 122q0 126 -68 202q-68 75 -165 75 q-87 0 -137 -41t-50 -89q0 -37 30 -91t30 -82q0 -35 -23 -60q-23 -24 -56 -24q-43 0 -77 42q-35 43 -35 116zM329 81q0 47 33 80t79 33q47 0 80 -33t33 -80q0 -46 -33 -79t-79 -33t-79 33t-33 79h-1z" />
<glyph unicode="@" horiz-adv-x="1886" d="M95 445q0 265 124 492q125 228 348 357q111 64 230 96q120 32 243 32q207 0 374 -86t254 -249q44 -84 65 -170q21 -87 21 -180q0 -183 -81 -363q-81 -179 -207 -262q-65 -41 -129 -62q-66 -21 -135 -21q-76 0 -115 36t-39 101q0 24 5 66q4 30 14 82q-149 -178 -237 -231 q-89 -53 -156 -53q-70 0 -126 63q-55 62 -55 170q0 144 95 325q95 180 251 293q58 42 110 63q51 21 96 21q66 0 112 -35q44 -34 61 -104l33 110l153 23l-117 -399q-64 -222 -78 -284t-14 -96q0 -32 21 -54t53 -22q75 0 176 73q103 74 176 237q37 80 55 168q18 86 18 174 q0 170 -83 316q-82 144 -233 223q-76 37 -159 57q-85 20 -174 20q-231 0 -429 -123q-197 -122 -313 -353q-59 -116 -87 -235q-29 -122 -29 -244q0 -229 102 -417t286 -285q91 -48 191 -72q99 -24 205 -24q263 0 476 141q214 142 329 412h58q-90 -274 -327 -444 q-238 -170 -540 -170q-237 0 -442 113t-317 318q-55 103 -84 218q-29 116 -29 238zM646 294q0 -63 36 -102t80 -39q58 0 123 44q65 43 135 135q35 46 60 91q26 47 42 93q28 80 42 144q14 67 14 114l-3 1q0 66 -36 105t-89 39q-37 0 -75 -20q-39 -20 -77 -60 q-58 -61 -104 -136q-49 -80 -89 -177q-30 -77 -44 -130q-15 -58 -15 -102z" />
<glyph unicode="A" horiz-adv-x="1479" d="M466 725q-3 27 -3 52q0 62 18 107l26 65l21 12q12 7 30 7q15 0 33 -5q52 -13 102 -23l60 -12l70 -28l27 14l49 -7l42 7l112 -28q4 -7 12 -22q12 -22 -5 -55l28 -70l-1 -27q-40 -49 -119 -147q-119 -148 -180 -176h-280l-22 98l-13 14q1 22 2 65v12q0 61 -9 147z" />
<glyph unicode="B" horiz-adv-x="1366" d="M290 658l57 87l48 36q88 66 168 125q90 67 149 67q20 0 37 -8l66 -30l119 -56l140 -84l-14 -76q-26 -38 -45 -106q-19 -69 -24 -126q-4 -58 -20 -72l-15 -13q-37 -16 -64 -54l-27 -38l-132 4l-84 21l-39 36q-40 37 -80 47q-44 11 -112 40l-70 30q-77 55 -77 112 q0 29 19 58z" />
<glyph unicode="C" horiz-adv-x="1366" d="M437 510q-32 72 -32 163q0 134 68 310q27 6 80 17q21 5 42 5q58 0 116 -35l41 -26l56 -51l63 -42l28 -42l147 -105l76 -35l1 -48l-63 -52l-329 -166l-188 -83l-28 14q-26 59 -78 176z" />
<glyph unicode="D" horiz-adv-x="1479" d="M390 493l14 161l-14 56v125l56 112h28l21 21l35 21l70 63l77 63l104 77l33 22l7 -21q12 -34 35 -101q33 -96 71 -180q38 -80 156 -245l118 -167l-154 -35l-154 -67l-489 -178l7 238z" />
<glyph unicode="E" horiz-adv-x="1251" d="M288 675l84 129l195 160h3q56 53 114 53q28 0 57 -13q79 -36 86 -38l1 -1q108 -46 108 -154q0 -44 -18 -98l-62 -188q-72 -209 -241 -209h-9l-177 6q-61 12 -89 34q-25 20 -24 49v8l8 70q-71 37 -71 97q0 42 35 95z" />
<glyph unicode="F" horiz-adv-x="1139" d="M281 822q-2 10 -2 24q0 23 6 56l10 54v63q25 36 267 42l242 6l51 1q11 -7 11 -34q0 -13 -3 -31l-8 -54l-14 -510v-77l-35 -28l-49 -17l-70 10l-21 -10l-98 3q-7 -3 -17 -3q-15 0 -37 6l-37 11q-19 -5 -36 -5q-20 0 -38 7l-32 12l-27 111q-27 111 -42 168q-16 57 -16 114 q0 53 -5 81z" />
<glyph unicode="G" horiz-adv-x="1479" d="M437 660l9 48q9 48 62 74q52 26 60 48t39 66q32 45 51 59l19 15l21 28q12 5 35 15q35 15 53 62l8 8q3 3 10 3q16 0 55 -12q20 4 60 11q12 2 23 2q46 0 84 -34q5 -4 14 -12q14 -12 8 -58l-1 2l6 -93q3 -49 3 -94q0 -38 -2 -74q-4 -74 -12 -130l-8 -55q-25 -22 -75 -65 q-74 -64 -143 -96q-75 -35 -83 -39q-4 -2 -10 -2q-16 0 -47 14q-39 19 -80 33q-40 14 -60 14q-22 0 -32 7l-11 7l-42 28z" />
<glyph unicode="H" horiz-adv-x="1479" d="M318 523l14 70l56 154v56l56 49v77l35 42l7 28q82 -27 333 -80l255 -54l14 -7v-35l14 -49l35 -126l14 -28l-63 -41l-105 -18l-46 -11l-436 -69l-91 -36l-58 18z" />
<glyph unicode="I" horiz-adv-x="682" d="M20 458q16 212 48 463l-2 2q32 251 159 287l128 36q120 -26 162 -111l42 -85q84 -188 93 -348q2 -41 2 -78q0 -106 -19 -177q-25 -94 -207 -247q-110 -93 -198 -93q-57 0 -104 39q-106 87 -106 263q0 24 2 49z" />
<glyph unicode="J" horiz-adv-x="797" d="M99 540q-61 53 -61 99q0 50 70 92q134 80 255 203q120 122 187 122t108 -50q36 -47 42 -82l6 -36l14 -61q0 -15 18 -56l18 -41q6 -35 6 -63q0 -67 -34 -101q-50 -49 -70 -53q-21 -6 -69 -36q-50 -31 -142 -56q-56 -15 -101 -15q-32 0 -58 7q-65 18 -189 127z" />
<glyph unicode="K" horiz-adv-x="1479" d="M367 590l49 140v34l21 42l14 42l175 56l14 14l42 21l21 -14l126 42l21 -35l41 -83l70 -63l28 -35l14 -28l35 -49l21 -14l-14 -35l-132 -35l-70 -56q-3 0 -10 -1q-10 -1 -25 -6q-5 -1 -12 -1q-16 0 -45 6l-41 9h-35l-28 14l-105 14l-21 -7l-56 7z" />
<glyph unicode="L" horiz-adv-x="1251" d="M364 619q17 157 42 224q26 67 111 117l85 50h31q9 1 17 1q91 0 171 -148q43 -80 43 -161q0 -83 -45 -168q-78 -147 -148 -147q-9 0 -17 2q-76 21 -192 48q-100 23 -100 144q0 18 2 38z" />
<glyph unicode="M" horiz-adv-x="1821" d="M293 337q8 77 23 231q22 230 179 524l175 167l112 -20l28 -28l70 -28l70 -21l48 -21l56 14l77 -7l56 -7l71 -48l22 -147l20 -21l14 -216l105 -294l91 -147l28 -28q2 -14 5 -42q2 -13 2 -26q0 -29 -8 -57q-3 -13 -61 -13q-127 0 -517 64q-567 93 -666 171z" />
<glyph unicode="N" horiz-adv-x="1479" d="M386 543l30 20v49l-1 1q31 172 177 313l145 141q2 1 5 1q30 0 166 -104l150 -114l42 -63l-7 -119l-56 -231q17 -31 9 -57l-8 -26h-63l-196 41l-391 91q-17 20 -17 34t15 23z" />
<glyph unicode="O" horiz-adv-x="1479" d="M213 637q-13 50 -13 101q0 135 94 274q124 184 242 184h11q45 -3 88 -3q77 0 149 10q26 4 51 4q83 0 144 -42l79 -54l133 -181q14 -29 41 -86q25 -53 25 -93q0 -25 -10 -45q-27 -55 -41 -109l-15 -57q-11 -128 -126 -224q-117 -97 -189 -128q-39 -17 -101 -17 q-57 0 -133 14q-160 28 -270 149q-110 120 -159 303z" />
<glyph unicode="P" horiz-adv-x="1139" d="M217 737h14v48l14 28v35l20 28h28l35 35l49 7l63 28l35 14l14 14l35 7l21 -21l28 14l21 -14l21 14l21 -7h28v7l21 18h14l28 -11q2 4 7 12q7 11 7 17t7 10l7 4h49l21 -28l14 -35l35 -62l-14 -35l28 -91l-14 -35v-49l-14 -18v-38l-14 -42l-7 -35l-14 -49l-28 -49l-28 -14 l-35 -21l-35 -42h-21l-21 -7l-35 -35l-14 -21l-35 -1l-35 28l-49 56l-42 21h-56l-42 28l-55 42l-7 21l-7 28l-21 21l-14 35l7 42l-21 28v42z" />
<glyph unicode="Q" horiz-adv-x="1479" d="M366 500l1 3q0 53 33 228l33 176q17 137 72 146l55 9h91l91 -21l98 -21l132 -133l35 -77l35 -70q14 -90 14 -155q0 -57 -11 -94l-23 -80q-10 -2 -30 -7q-25 -6 -160 -28q-64 -10 -130 -10q-69 0 -139 11q-131 21 -163 27q-25 5 -29 24q-5 22 -5 72z" />
<glyph unicode="R" horiz-adv-x="1366" d="M236 1127q-4 14 -4 26q0 24 16 36l23 18l84 55l54 1l14 22h28l42 -42l28 14l27 6h77l7 -20h35l28 -42l21 -28l56 -7l7 -56q2 -10 6 -29q6 -29 37 -54q30 -24 61 -83l30 -57l42 -36l35 -34v-91l21 -7l21 -98l7 -46l42 -72l49 -119l-42 -70l-112 -14l-56 35l-14 -7l-91 -81 l-28 -45l-83 -28l-124 -56l-128 -21l-14 21l-26 98q-4 5 -12 14q-5 6 -5 21q0 20 9 56q11 42 11 120q0 34 -2 75l-8 133l-9 30q-10 32 -40 68q-31 35 -58 102l-27 66v167z" />
<glyph unicode="S" horiz-adv-x="1139" d="M275 827l40 111q21 106 90 110q14 1 25 1q46 0 54 -13q10 -15 117 -63l107 -48l103 -103q79 -80 79 -179q0 -30 -7 -61q-31 -136 -151 -184q-91 -37 -171 -37q-25 0 -48 4q-99 17 -135 82q-54 99 -89 166l-2 1q-30 58 -30 118q0 47 18 95z" />
<glyph unicode="T" horiz-adv-x="1251" d="M33 391l35 70h35l63 63l49 42l70 126l35 35l14 49l35 34l30 70l81 182l77 133l56 84l92 -56l63 -14l147 -119l119 -112l139 -69q-8 -20 -8 -37q0 -28 22 -46l35 -30l-14 -91v-21l-132 -77l-112 -98l-315 -217l-104 -111l-56 -35l-21 7l-42 13h-102l-42 3q-14 1 -29 1 q-30 0 -65 -4q-9 -1 -17 -1q-39 0 -55 20l-20 24z" />
<glyph unicode="U" horiz-adv-x="1479" d="M400 737l10 90l1 1q76 134 199 134q54 0 118 -26l207 -86q177 -123 177 -227q0 -28 -13 -54l-60 -125q-93 -62 -180 -62q-46 0 -90 17q-128 49 -255 149q-115 92 -115 176q0 6 1 13z" />
<glyph unicode="V" horiz-adv-x="1479" d="M416 1088q75 42 122 42q6 0 11 -1l49 -6l84 -49l223 -216l154 -182v-56l-132 -126l-210 -230h-49l-49 34l-56 252z" />
<glyph unicode="W" horiz-adv-x="1933" d="M495 318q-10 70 -10 148q0 138 31 302l48 257l35 147q18 7 46 7q94 0 301 -82l269 -107l133 -77l21 -49v-98q25 -60 59 -111l33 -49l-42 -154v-35l-84 -35l-559 -105l-42 -35l-65 -2l-70 42q-53 0 -78 18z" />
<glyph unicode="X" horiz-adv-x="1479" d="M146 818l7 111l97 105l42 21l56 42l14 49l63 15l182 -53l77 -32l84 -70l181 -97l182 -126l105 -63l56 -98v-28l-77 -70l-105 -70l-133 -56l-83 -55l-175 -22q-9 9 -26 28q-25 28 -93 28l-168 -21l-56 7l-125 98l-14 35v154l-25 105z" />
<glyph unicode="Y" horiz-adv-x="1479" d="M464 651v42q2 17 6 52q6 52 21 88q11 26 11 55q0 13 -2 27l-8 45h5q29 0 178 40l167 45l35 -7q0 -16 11 -30l11 -13l97 -98v-21l28 -21v-49q-15 -89 -121 -235q-109 -151 -117 -163v-1q-10 -15 -20 -15h-3l-12 1l-35 35l-63 77h-21l-28 35l-84 70h-28z" />
<glyph unicode="Z" horiz-adv-x="1251" d="M438 477v42l21 28v42l-21 35l56 315h70l182 -70l105 -28l35 -14l-56 -140l-56 -56l-63 -84l-217 -77z" />
<glyph unicode="[" horiz-adv-x="682" d="M168 -406v1793h440v-79h-290v-1636h290v-78h-440z" />
<glyph unicode="\" horiz-adv-x="569" d="M3 1422h80l490 -1450h-80z" />
<glyph unicode="]" horiz-adv-x="682" d="M75 -328h290v1636h-290v79h440v-1794h-440v79z" />
<glyph unicode="^" horiz-adv-x="961" d="M37 667l431 717h30l425 -717h-92l-350 586l-350 -586h-94z" />
<glyph unicode="_" d="M-17 -358h1059v-84h-1059v84z" />
<glyph unicode="`" horiz-adv-x="682" d="M118 1390h223l106 -345h-35z" />
<glyph unicode="a" horiz-adv-x="909" d="M312 657v36q0 37 57 68q60 33 80 52q14 13 26 13q7 0 13 -5q15 -13 18 -26l3 -12h1q4 -15 12 -46q11 -43 23 -72q1 -6 3 -17q3 -16 3 -32q0 -14 -14 -36q-13 -21 -71 -21q-41 0 -103 2q-47 1 -51 96z" />
<glyph unicode="b" d="M305 713v49l56 70l133 118h84l119 -146l23 -49l-9 -63l9 -35v-56l-100 -126h-21l-42 21l-42 7l-115 84l-60 70z" />
<glyph unicode="c" horiz-adv-x="909" d="M201 706l4 -2q-4 26 -4 50q0 97 70 147l87 62h42q42 0 84 -83q42 -84 126 -129l84 -45q10 -22 10 -49q0 -13 -2 -26l-8 -44q-36 -15 -61 -53l-24 -38q-54 -55 -92 -55q-13 0 -25 7l-44 26q-29 -10 -53 -10q-27 0 -48 13l-39 24q-58 0 -75 39l-17 39l3 -5q2 0 -18 132z " />
<glyph unicode="d" d="M309 833l13 27l63 49q42 26 77 26q26 0 47 -14l51 -34q13 -12 38 -35q38 -35 95 -98q31 -33 31 -67q0 -32 -26 -65l-54 -69l-35 -64h-48l-77 64l-163 222q-16 20 -16 39q0 10 4 19z" />
<glyph unicode="e" horiz-adv-x="909" d="M204 616q8 86 33 216t93 145l67 15l112 -14l59 -18q62 -24 62 -125v-18q-6 -115 -32 -221q-25 -103 -65 -111l-39 -8q-13 0 -39 1q-40 2 -149 27q-103 23 -103 100q0 5 1 11z" />
<glyph unicode="f" horiz-adv-x="682" d="M151 739q10 37 26 59l1 -1q16 21 15 60l-1 39q25 36 37 36q4 0 7 -3l12 -13l56 -21h30l48 -18q47 -18 111 -86q38 -42 38 -104q0 -38 -14 -83q-35 -112 -59 -172q-19 -47 -43 -47q-3 0 -6 1l-28 6l-77 70q-22 23 -66 68q-65 67 -82 120q-9 31 -9 57q0 17 4 32z" />
<glyph unicode="g" d="M222 734q56 224 234 258q181 35 296 35q91 0 91 -79q0 -23 -8 -53l-35 -132q-18 -39 -53 -117q-52 -116 -104 -203q-42 -71 -94 -71q-11 0 -23 3l-66 20l-122 19q-29 16 -86 48q-52 29 -52 123q0 61 22 149z" />
<glyph unicode="h" d="M271 770l18 28l136 182h105l153 14l28 -196l28 -272l-55 -42l-63 -21l-144 21l-143 56l7 42l-35 70z" />
<glyph unicode="i" horiz-adv-x="569" d="M128 624q-22 31 -22 67q0 53 46 117q61 86 119 86q16 0 31 -6l72 -30l1 -2q22 -14 66 -43q50 -33 50 -116q0 -26 -5 -58q-21 -130 -137 -132h-10q-106 0 -131 20q-28 25 -80 97z" />
<glyph unicode="j" horiz-adv-x="569" d="M133 603q-1 17 -1 31q0 55 9 88q15 56 26 64t57 84q44 72 81 72h3q38 -3 63 -24l-1 -3q28 -20 35 -75l8 -56q2 -14 7 -42q7 -39 7 -63q0 -21 -36 -101q-31 -68 -116 -68q-14 0 -29 2q-110 14 -113 91z" />
<glyph unicode="k" d="M355 675q-1 4 -1 15q0 17 3 51q4 52 17 61l12 9l105 154h43l76 -98q7 -15 20 -45q13 -29 13 -63q0 -19 -4 -39l21 -63v-27q0 -26 -26 -63q-27 -37 -63 -49q-7 -2 -15 -2q-30 0 -68 37q-13 8 -39 23q-40 23 -65 54q-26 32 -29 45z" />
<glyph unicode="l" horiz-adv-x="569" d="M42 648q14 106 22 152q11 64 64 141q54 79 133 83h-3h10q71 0 113 -67l45 -72q-3 -2 -8 -7q-1 -1 -1 -4q0 -16 30 -87q36 -80 67 -195q9 -34 9 -62q0 -63 -47 -92q-68 -42 -153 -81q-21 -10 -43 -10q-68 0 -146 91q-93 108 -93 191q0 10 1 19z" />
<glyph unicode="m" horiz-adv-x="1593" d="M489 648l3 69q3 71 40 205q33 124 118 124q8 0 15 -1l97 -12l139 -64q116 -53 149 -129l33 -77q27 -68 27 -115q0 -63 -49 -89q-85 -45 -132 -66q-29 -13 -69 -13q-25 0 -53 5q-54 10 -123 10q-30 0 -62 -2h-10q-99 0 -111 75z" />
<glyph unicode="n" d="M214 798l24 33l98 63l21 42q50 63 101 62l67 -27l84 -69l139 -133q3 -1 9 -2q10 -2 41 -33q30 -30 49 -63q11 -19 11 -37q0 -11 -4 -20q-11 -27 -22 -35q-52 -39 -132 -98q-80 -60 -135 -60q-27 0 -48 15l-63 44l-56 56q-19 23 -57 68q-54 64 -104 114q-31 31 -31 56 q0 13 8 24z" />
<glyph unicode="o" d="M213 622l21 54l138 212q83 95 157 95q64 0 121 -72q122 -155 147 -192q20 -29 20 -59q0 -9 -2 -18q-8 -40 -54 -92q-47 -52 -126 -72q-84 -21 -126 -26q-12 -1 -24 -1q-32 0 -59 10q-36 13 -135 60q-82 39 -82 82q0 10 4 19z" />
<glyph unicode="p" d="M372 618l2 1q-61 91 -61 158q0 80 90 124l165 80q140 -31 140 -149v-11l-7 -129l-27 -144q-27 -144 -105 -144q-79 0 -138 107z" />
<glyph unicode="q" d="M231 685q15 92 41 146l2 1q26 52 78 78l53 26q18 2 53 6q18 2 32 2q28 0 42 -8q20 -12 95 -36l74 -24q113 -65 113 -134q0 -20 -9 -40q-40 -87 -105 -205q-57 -107 -111 -107q-4 0 -8 1l-57 8q-18 10 -55 29q-53 27 -154 96q-86 59 -86 137q0 12 2 24z" />
<glyph unicode="r" horiz-adv-x="682" d="M89 762l46 38l298 112q-3 -5 12 2l14 7q11 6 26 6q23 0 55 -14q46 -20 46 -72q0 -7 -1 -15l-7 -65l-15 -206l-23 -30l-68 -15l-38 -16l-46 -31q-12 1 -35 3q-35 3 -35 -2q0 -6 -103 81l-103 87z" />
<glyph unicode="s" horiz-adv-x="797" d="M245 699l15 42q15 43 78 65t96 30l33 8h32q32 0 60 -46q6 -9 19 -27q19 -26 19 -56q0 -29 -9 -87t-60 -81q-15 -5 -45 -16q-18 -6 -39 -13.5t-23 -8.5q-17 -5 -42 -21l-26 -17h-61l-46 60z" />
<glyph unicode="t" horiz-adv-x="569" d="M48 635v48l19 86l19 77l10 29l57 38h57l87 -29h172l57 -38v-38l-47 -67l-20 -67l-47 -115l-20 -38h-47l-211 76z" />
<glyph unicode="u" d="M329 603q0 32 12 134l12 102v-1q35 153 146 153h7l117 -5q55 -6 73 -68l18 -62q3 -22 8 -67q1 -7 1 -14q0 -66 -67 -181q-74 -128 -118 -137l-45 -9q-11 -1 -21 -1q-109 0 -125 60q-18 65 -18 96z" />
<glyph unicode="v" d="M333 740l1 69q7 34 60 40l53 6h107l114 -31l31 -30l-61 -130l-122 -122l-54 23l-7 23l-46 76z" />
<glyph unicode="w" horiz-adv-x="1479" d="M450 688l122 204h41l41 -21l91 1h132l82 -51l61 -132v-61l-61 -9l-167 -53h-118l-173 31z" />
<glyph unicode="x" d="M377 640l10 98v107l29 39l215 10l48 -117l59 -117l-39 -49l-10 -107l-39 -39h-263z" />
<glyph unicode="y" d="M229 582l56 78l54 30l20 24l57 13l117 85l136 99l56 13l51 -44l8 -36l-22 -35l-5 -32l-67 -77l-19 -52l-35 -81l-81 -97l-21 -35l-36 -16l-88 30l-170 104z" />
<glyph unicode="z" horiz-adv-x="909" d="M171 504l4 84l47 189l58 160l63 8q41 7 86 7q55 0 116 -10l112 -18l42 -14v-43l77 -209l-14 -47l-42 -58l-35 -42l-251 -56l-189 -35q-74 0 -74 74v10z" />
<glyph unicode="{" horiz-adv-x="983" d="M283 470v41q107 14 167 75q60 62 60 135q0 50 -23 147t-23 168q0 136 105 249q105 112 272 135v-35q-116 -28 -171 -92q-54 -63 -54 -140q0 -57 23 -155t23 -164q0 -100 -74 -195q-73 -94 -221 -147q144 -52 219 -150t75 -198q0 -66 -23 -164t-23 -155l1 -1 q0 -77 54 -140q55 -64 171 -92v-35q-167 23 -272 135t-105 249q0 70 23 168t23 149q0 72 -60 135t-167 77z" />
<glyph unicode="|" horiz-adv-x="410" d="M161 -442v1864h83v-1864h-83z" />
<glyph unicode="}" horiz-adv-x="983" d="M177 -406q116 28 171 92q54 63 54 140q0 57 -23 155t-23 164q0 102 75 197q75 94 222 147q-143 52 -220 150q-76 97 -76 198q0 66 23 164t23 155l-1 2q0 77 -54 140q-55 64 -171 92v35q167 -23 272 -135t105 -251q0 -70 -23 -167t-23 -147q0 -72 60 -135t167 -77v-41 q-107 -14 -167 -77t-60 -135q0 -51 23 -149t23 -168q0 -137 -105 -249t-272 -135v35z" />
<glyph unicode="~" horiz-adv-x="1108" d="M21 398q6 134 74 207q67 72 159 72q22 0 45 -3q20 -3 45 -11q104 -30 273 -102q170 -72 239 -72v1q75 0 126 48t60 138h45q-5 -130 -75 -204q-71 -74 -171 -74q-47 0 -99 15t-273 105q-75 31 -131 48q-52 16 -87 16q-71 0 -118 -43q-49 -44 -68 -141h-44z" />
<glyph unicode="&#xa1;" horiz-adv-x="682" d="M230 -291q0 7 2 29q2 16 3 39l89 811h38l89 -810q1 -11 4 -47q1 -13 1 -33q0 -63 -33 -102t-80 -39t-80 38q-33 37 -33 114zM232 863h2q0 45 32 79q32 33 78 33t78 -33q32 -34 32 -79q0 -47 -33 -78q-34 -32 -79 -32q-46 0 -78 32t-32 78z" />
<glyph unicode="&#xa2;" d="M128 456q0 128 39 225t117 165q60 52 129 78q70 26 145 26q16 0 26 -1q13 -1 35 -3l140 383h72l-145 -402q53 -23 86 -45q37 -24 53 -43q24 -27 36 -56t12 -60q0 -39 -24 -62q-25 -23 -70 -23q-27 0 -48 9t-38 29q-9 10 -15 32q-7 25 -11 51q-1 17 -6 33t-12 33 l-228 -631q33 -22 52 -32q30 -15 43 -20q16 -5 32 -8q18 -3 38 -3q60 0 117 26q55 25 84 60q14 16 36 53q20 33 48 92l29 -9q-22 -95 -63 -168t-99 -126q-44 -40 -100 -61t-121 -21q-41 0 -81 9t-81 27l-142 -390h-70l155 427q-37 35 -70 77q-30 39 -48 78q-26 56 -39 118 q-13 61 -13 133zM289 535h1q0 -75 18 -138q19 -65 64 -147l223 615q-13 6 -29 9q-15 3 -31 3q-51 0 -92 -18t-71 -56q-41 -50 -62 -117q-21 -68 -21 -151z" />
<glyph unicode="&#xa3;" d="M60 101q0 67 46 112t118 45q10 0 38 -2q22 -2 47 -6q2 34 2 45v33q0 34 -5 126q-5 84 -15 203h-194v95h194q-6 73 -9 125q-3 49 -3 75q0 123 49 222q50 102 136 155q44 25 90 39q48 14 96 14q126 0 189 -68t63 -135q0 -31 -24 -57q-24 -25 -53 -25q-20 0 -35 9t-29 29 q-11 18 -15 78t-34 88q-15 14 -37 21q-21 7 -51 7q-80 0 -131 -62q-51 -61 -51 -218q0 -37 3 -83q3 -48 9 -104q2 -15 4.5 -38t2.5 -26q1 -8 1.5 -16t1.5 -16.5t1 -11.5h258l1 -103h-258q1 -15 1 -39v-27q0 -92 -14 -174q-13 -79 -48 -183q35 -11 85.5 -27.5t67.5 -21.5 q56 -18 69 -21q25 -6 51 -9t51 -3q83 0 135 39q52 38 76 122l36 -9q-21 -160 -104 -243t-183 -83q-67 0 -123 24t-204 135q-40 -79 -87 -120q-46 -40 -99 -40q-50 0 -83 35q-33 34 -33 95zM119 104q0 -35 20 -57q19 -21 45 -21l-1 -2q34 0 65 31q32 31 51 108q-23 14 -43 21 t-42 7q-44 0 -70 -24q-25 -24 -25 -63z" />
<glyph unicode="&#xa4;" d="M27 251l144 145q-52 59 -77 129q-26 72 -26 153q0 78 26 150q25 70 77 134l-144 141l56 57l146 -142q54 46 132 74q81 29 153 29v-4q68 0 146 -26q76 -25 135 -75l143 142l58 -57l-144 -141q53 -66 78 -136q26 -72 26 -145q0 -75 -26 -147q-26 -70 -78 -135l144 -145 l-58 -55l-143 143q-69 -52 -135 -77q-69 -26 -135 -26q-88 0 -172 30q-83 30 -124 72l-146 -143zM151 672q0 -147 106 -253t255 -106q148 0 255 107t107 254q0 92 -49 180t-135 135l2 -1q-44 24 -88 36q-45 12 -91 12q-152 0 -257 -107q-105 -106 -105 -257z" />
<glyph unicode="&#xa5;" d="M2 1316v38h442v-38q-71 -4 -96 -23q-24 -18 -24 -39q0 -6 5 -23q2 -8 14 -37l214 -519l213 504q10 25 15 45q5 22 5 31t-5 21q-5 10 -15 21q-8 7 -24 12t-42 6q-7 0 -12 1q-10 2 -16 3v38h346v-38q-30 0 -51 -6q-22 -6 -35 -18q-20 -16 -42 -50q-24 -37 -44 -82 l-214 -485h387v-73h-419l-7 -16l1 -166h426v-73h-426v-108q0 -56 3 -92q3 -33 8 -52q4 -10 14 -20t21 -17q22 -12 40 -17q21 -6 45 -6h41v-41h-515v41h32q35 0 60 6t42 20q12 10 21 24q8 12 13 33q2 11 3 40q1 20 1 80v108h-424v73h424v144l-15 36h-409v73h377l-213 496 q-37 87 -73 115t-92 30z" />
<glyph unicode="&#xa6;" horiz-adv-x="410" d="M161 300h83v-742h-83v742zM161 680v742h83v-742h-83z" />
<glyph unicode="&#xa7;" d="M158 506l4 -4q0 92 54 182t167 158q-67 74 -96 135q-29 63 -29 124q0 118 82 200q83 83 202 83q111 0 182 -67q72 -67 72 -153q0 -19 -6 -37q-6 -17 -20 -33q-8 -9 -23 -16q-13 -6 -30 -6q-34 0 -57 23q-22 22 -22 54q0 3 2 21q2 14 6 33q2 7 4 23q1 7 1 21q0 41 -29 68 t-80 27q-73 0 -124 -51t-51 -124q0 -34 7 -59q8 -27 21 -48q23 -36 60 -71q37 -36 90 -75q100 -72 170 -137q68 -63 106 -123q25 -40 39 -84q13 -42 13 -88q0 -91 -53 -183q-52 -91 -168 -160q69 -75 97 -132q27 -55 27 -120q0 -122 -82 -204t-202 -82q-108 0 -180 69 t-72 157q0 37 24 63t55 26t54 -24q22 -23 22 -64q0 -25 -8 -60t-8 -50t6 -27t18 -21q20 -16 44 -23q26 -8 52 -8q69 0 122 52q54 53 54 114q0 30 -8 59q-8 28 -24 53q-23 36 -68 81q-42 42 -107 90q-94 70 -159 132t-99 114q-26 40 -39 84q-13 42 -13 88zM260 590 q0 -34 9 -66t27 -62q25 -39 75 -88q45 -44 122 -103q38 -28 65 -51q30 -25 56 -50q76 46 114 102t38 118q0 64 -44 135t-180 177l2 2q-38 30 -74 59q-32 26 -59 50q-75 -45 -113 -101t-38 -122z" />
<glyph unicode="&#xa8;" horiz-adv-x="682" d="M54 1228q0 45 32 77t77 32q46 0 78 -32t32 -77t-32 -77t-75 -32q-45 0 -77 32t-32 77h-3zM406 1228q0 45 32 77t77 32t77 -32t32 -77t-32 -77t-77 -32t-77 32t-32 77z" />
<glyph unicode="&#xa9;" horiz-adv-x="1556" d="M68 677q0 185 96 356t266 263h2q88 46 172 68q89 23 176 23q178 0 348 -92t266 -261q47 -87 71 -174q24 -88 24 -182q0 -185 -94 -354t-264 -262q-85 -47 -173 -71t-180 -24q-185 0 -353 93t-263 263q-46 84 -70 174q-24 89 -24 180zM132 676q0 -167 86 -322 q86 -154 240 -240q78 -44 158 -65q81 -21 165 -21q168 0 323 86q154 86 240 240q42 76 63 158q21 81 21 165q0 169 -87 325t-242 240l-1 -2q-76 42 -156 63t-162 21q-164 0 -318 -84q-155 -84 -242 -239q-44 -78 -66 -159q-22 -79 -22 -166zM323 670q0 192 140 327 q139 135 357 135q47 0 77 -6q26 -5 108 -32q14 -5 22 -6q12 -2 15 -2q16 0 27 9t21 37h43l20 -280h-39q-36 118 -114 177q-79 59 -188 59q-83 0 -147 -34q-65 -35 -105 -91q-31 -45 -50 -114q-20 -72 -20 -150q0 -212 91 -312q92 -101 240 -101q97 0 176 41q77 40 136 122 l37 -19q-70 -101 -165 -152q-96 -51 -218 -51q-200 0 -332 129t-132 314z" />
<glyph unicode="&#xaa;" horiz-adv-x="565" d="M-7 909q0 23 6 42q6 18 17 36q16 24 42 47q28 25 65 47l2 -2q27 17 80 41q65 29 137 59q0 110 -27 143t-80 33q-49 0 -71 -21q-23 -21 -23 -68q0 -44 -17 -66q-16 -21 -42 -21q-22 0 -39 17t-17 42q0 56 57 99q58 44 178 44q92 0 141 -31q50 -32 63 -64q6 -16 9 -44 q3 -27 3 -65v-259q0 -14 2 -20q1 -6 5 -11q4 -6 7 -9q1 -1 3.5 -2.5t3.5 -2.5q4 -2 6 -2q6 0 22 8q10 5 37 23v-48q-73 -52 -99 -63q-27 -11 -51 -11q-25 0 -45 21q-20 22 -29 75q-65 -46 -117 -68q-55 -23 -98 -23q-52 0 -92 38q-39 37 -39 86zM134 956q0 -34 26 -60 t63 -26q21 0 52 11q29 10 67 33v226q-121 -41 -164 -88q-44 -49 -44 -96z" />
<glyph unicode="&#xab;" d="M64 464l387 470h57l-244 -470l244 -472h-57zM508 464l394 470h58l-243 -470l243 -472h-58z" />
<glyph unicode="&#xac;" horiz-adv-x="1155" d="M36 797v81h1080v-406h-79v325h-1001z" />
<glyph unicode="&#xad;" horiz-adv-x="682" d="M83 384v151h517v-151h-517z" />
<glyph unicode="&#xae;" horiz-adv-x="1556" d="M68 677q0 185 96 356t266 263h2q88 46 172 68q89 23 176 23q178 0 348 -92t266 -261q47 -87 71 -174q24 -88 24 -182q0 -185 -94 -354t-264 -262q-85 -47 -173 -71t-180 -24q-185 0 -353 93t-263 263q-46 84 -70 174q-24 89 -24 180zM132 676q0 -167 86 -322 q86 -154 240 -240q78 -44 158 -65q81 -21 165 -21q168 0 323 86q154 86 240 240q42 76 63 158q21 81 21 165q0 169 -87 325t-242 240l-1 -2q-76 42 -156 63t-162 21q-164 0 -318 -84q-155 -84 -242 -239q-44 -78 -66 -159q-22 -79 -22 -166zM374 245v33q48 0 68 12 q20 13 29 34q4 7 6 32q2 32 2 62v583q0 20 -2 28q-8 23 -26 35t-63 12l-6 35h386q146 0 222 -66t76 -159q0 -77 -51 -134t-170 -89l209 -298q22 -29 36 -44q17 -18 32 -29q10 -6 24 -9q17 -4 30 -5v-33h-184l-294 405h-76v-309q6 -33 29 -48t90 -15v-33h-367zM624 1052 l1 -357q118 0 173 23q54 23 83 65q14 18 22 44q7 22 7 50q0 81 -57 136q-56 55 -145 55q-21 0 -40 -4q-22 -5 -44 -12z" />
<glyph unicode="&#xaf;" d="M-17 1462v84h1059v-84h-1059z" />
<glyph unicode="&#xb0;" horiz-adv-x="819" d="M96 1078q0 128 90 218t218 90q129 0 219 -90t90 -218q0 -127 -90 -217t-218 -90q-127 0 -217 90t-90 217h-2zM179 1079q0 -91 65 -158q65 -66 158 -66q92 0 158 66t66 158h-1q0 93 -65 158t-158 65t-158 -65t-65 -158z" />
<glyph unicode="&#xb1;" horiz-adv-x="1124" d="M8 141v81h498v418h-498v82h498v497h80v-497h500v-82h-500v-418h501v-81h-1079z" />
<glyph unicode="&#xb2;" horiz-adv-x="614" d="M20 663v29q124 96 207 174t123 138q27 39 38 73q12 36 12 70q0 61 -42 103t-105 42q-57 0 -100 -30t-66 -89h-45q13 97 77 153t164 56q108 0 173 -58q66 -58 66 -130q0 -34 -12 -68t-36 -72q-38 -58 -111 -132t-183 -162h186q88 0 116 12t48 44l45 -1l-61 -152h-494z" />
<glyph unicode="&#xb3;" horiz-adv-x="614" d="M48 712q0 16 17 30t42 14q29 0 81 -24t90 -24q56 0 96 39t40 92q0 45 -27 86t-69 57q-30 12 -57 18t-51 6h-30v28q76 0 129 47t53 108q0 49 -33 81q-32 31 -88 31q-42 0 -79 -22q-38 -23 -69 -66l-34 17q17 36 39 64q23 29 43 44q31 24 69 36t80 12q92 0 144 -46 q53 -47 53 -102q0 -33 -26 -73t-78 -83q71 -25 108 -74q36 -48 36 -107q0 -103 -86 -177t-246 -74q-42 0 -72 6q-29 6 -49 18q-14 10 -20 18q-6 9 -6 20z" />
<glyph unicode="&#xb4;" horiz-adv-x="682" d="M236 1045l105 345h224l-295 -345h-34z" />
<glyph unicode="&#xb5;" horiz-adv-x="1180" d="M133 -331q0 20 8 63t21 101q5 20 16 66q5 20 7 38q6 51 9 96t3 83v21q0 30 -1 53l-3 733h164v-533q0 -67 5 -122q4 -48 14 -77q14 -41 48 -66t75 -25q59 0 117 33t117 101v687h165v-654q0 -39 2 -83q1 -32 6 -49q8 -25 24 -38q17 -14 36 -14q14 0 24 6q11 6 20 17 q14 18 23 42q10 28 14 60h42q-9 -122 -63 -177q-54 -56 -135 -56q-39 0 -69 15q-29 15 -51 44q-15 23 -24 55q-10 36 -14 77q-88 -103 -162 -146q-76 -44 -152 -44q-23 0 -48 5q-23 5 -42 15q-15 8 -29 24q-17 19 -33 40v-47q0 -39 9 -99q8 -53 26 -140q7 -27 10 -57 q3 -26 3 -47q0 -48 -28 -79t-66 -31q-37 0 -63 29q-25 28 -25 80z" />
<glyph unicode="&#xb6;" horiz-adv-x="928" d="M-14 980q0 53 11 100q10 44 32 80q59 96 155 146q97 50 252 50h495v-55h-134v-1743h-72v1743h-187v-1743h-73v1043q-189 7 -285 50q-94 42 -144 131q-26 45 -38 93q-12 49 -12 105z" />
<glyph unicode="&#xb7;" horiz-adv-x="682" d="M236 703h4q0 44 30 74t74 30t74 -30t30 -74t-31 -75t-75 -31t-75 31t-31 75z" />
<glyph unicode="&#xb8;" horiz-adv-x="682" d="M186 -340q18 -2 26 -3t22 -1q52 0 86 33q35 33 35 77q0 29 -23 52q-22 22 -57 22h-11q-4 0 -14 -2l111 176h60l-50 -79q62 -16 94 -54q31 -37 31 -92q0 -72 -60 -126t-155 -54q-10 0 -42 2q-25 2 -53 6v43z" />
<glyph unicode="&#xb9;" horiz-adv-x="614" d="M140 1298l205 87h35v-592q0 -24 2 -48q1 -17 5 -26q4 -6 7 -8l9 -6q7 -5 27 -6q26 -2 51 -2v-32h-325v32q25 0 51 2q18 1 27 5q13 5 17 15q5 12 5 72v374q0 44 -1 60q-2 27 -4 35q-3 17 -11 23t-20 6q-9 0 -27 -5t-41 -15z" />
<glyph unicode="&#xba;" horiz-adv-x="635" d="M28 1075q0 138 83 224t213 86q125 0 206 -84t81 -209q0 -123 -89 -214q-88 -90 -210 -90q-118 0 -201 81q-82 81 -82 206h-1zM168 1151q0 -79 18 -144q18 -66 52 -114q19 -28 45 -43q25 -15 57 -15q58 0 95 45q38 46 38 141q0 79 -18 144t-54 114l1 -2q-23 33 -49 47 q-27 15 -58 15q-53 0 -90 -45q-37 -44 -37 -143z" />
<glyph unicode="&#xbb;" d="M64 -8l243 470l-243 472h58l394 -472l-394 -470h-58zM516 -8l244 470l-244 472h57l387 -472l-387 -470h-57z" />
<glyph unicode="&#xbc;" horiz-adv-x="1536" d="M138 1298l205 87h35v-592q0 -24 2 -48q1 -17 5 -26q4 -6 7 -8l9 -6q7 -5 27 -6q26 -2 51 -2v-32h-325v32q25 0 51 2q18 1 27 5q13 5 17 15q5 12 5 72v374q0 44 -1 60q-2 27 -4 35q-3 17 -11 23q-7 6 -20 6q-9 0 -27 -5t-41 -15zM268 -54l935 1438h89l-934 -1438h-90z M937 144v73l376 465h84v-457h108v-81h-108v-183h-117v183h-343zM1020 225h260v316z" />
<glyph unicode="&#xbd;" horiz-adv-x="1536" d="M138 1298l205 87h35v-592q0 -24 2 -48q1 -17 5 -26q4 -6 7 -8l9 -6q7 -5 27 -6q26 -2 51 -2v-32h-325v32q25 0 51 2q18 1 27 5q13 5 17 15q5 12 5 72v374q0 44 -1 60q-2 27 -4 35q-3 17 -11 23q-7 6 -20 6q-9 0 -27 -5t-41 -15zM244 -54l935 1438h89l-935 -1438h-89z M944 -8q124 96 207 174t123 138q27 39 38 73q12 36 12 70q0 61 -42 103t-105 42q-57 0 -100 -30t-66 -89h-45q13 97 77 153t164 56q106 0 173 -59q66 -59 66 -129q0 -33 -12 -69q-12 -37 -36 -74q-38 -59 -111 -132t-183 -162h187q85 0 114 12t48 45l46 1l-61 -153h-494v30z " />
<glyph unicode="&#xbe;" horiz-adv-x="1536" d="M45 713q0 16 17 30t42 14q28 0 81 -24t90 -24q55 0 96 39q40 39 40 92q0 72 -57 120q-56 48 -176 46v28q76 0 129 47t53 108q0 49 -33 81q-32 31 -88 31q-42 0 -79 -22q-38 -23 -69 -66l-35 18q17 36 39 64q23 29 43 44q32 24 69 36q38 12 80 12q92 0 144 -46 q53 -47 53 -102q0 -33 -26 -73t-78 -83q71 -25 108 -74q36 -48 36 -107q0 -103 -86 -177t-246 -74q-42 0 -72 6q-29 6 -49 18q-14 10 -20 18q-6 9 -6 20zM256 -54l935 1438h86l-931 -1438h-90zM936 145v73l376 465h84v-457h108v-81h-108v-183h-116v183h-344zM1020 226h260 v316z" />
<glyph unicode="&#xbf;" horiz-adv-x="909" d="M89 -122q0 38 8 78q7 38 21 72q44 99 150 221q107 124 137 191l3 1q15 35 24 81t12 105h39q-5 -125 -24 -197t-102 -246q-42 -87 -63 -159t-21 -129q0 -132 66 -204t170 -72q87 0 137 41t50 90q0 32 -31 85t-31 86q0 34 24 58t57 24q41 0 75 -42q35 -43 35 -111 q0 -116 -98 -203q-97 -87 -267 -87t-270 93q-101 93 -101 224zM341 864q0 46 33 79t79 33t79 -33t33 -79t-33 -79t-79 -33t-79 33t-33 79z" />
<glyph unicode="&#xc0;" horiz-adv-x="1479" d="M466 725q-10 95 15 159l26 65l21 12q22 12 63 2q52 -13 102 -23l60 -12l70 -28l27 14l49 -7l42 7l112 -28q4 -7 12 -22q12 -22 -5 -55l28 -70l-1 -27q-40 -49 -119 -147q-119 -148 -180 -176h-280l-22 98l-13 14q1 22 2 65q1 64 -9 159zM513 1797h223l106 -345h-35z" />
<glyph unicode="&#xc1;" horiz-adv-x="1479" d="M466 725q-10 95 15 159l26 65l21 12q22 12 63 2q52 -13 102 -23l60 -12l70 -28l27 14l49 -7l42 7l112 -28q4 -7 12 -22q12 -22 -5 -55l28 -70l-1 -27q-40 -49 -119 -147q-119 -148 -180 -176h-280l-22 98l-13 14q1 22 2 65q1 64 -9 159zM630 1452l105 345h224l-295 -345 h-34z" />
<glyph unicode="&#xc2;" horiz-adv-x="1479" d="M454 1462l189 331h184l190 -331h-31l-273 213l-229 -213h-30zM466 725q-10 95 15 159l26 65l21 12q22 12 63 2q52 -13 102 -23l60 -12l70 -28l27 14l49 -7l42 7l112 -28q4 -7 12 -22q12 -22 -5 -55l28 -70l-1 -27q-40 -49 -119 -147q-119 -148 -180 -176h-280l-22 98 l-13 14q1 22 2 65q1 64 -9 159z" />
<glyph unicode="&#xc3;" horiz-adv-x="1479" d="M418 1464q4 136 57 198q52 61 131 61q21 0 39 -3q21 -3 35 -10q44 -16 128 -71q82 -54 123 -54q32 0 56 27q25 28 38 112h31q2 -93 -24 -147t-72 -84q-24 -16 -47 -24q-24 -8 -47 -8q-37 0 -88 20q-50 19 -108 60q-62 43 -85 52t-43 9t-36 -9q-17 -9 -29 -27l1 -1 q-4 -7 -12 -33q-5 -18 -16 -68h-32zM467 724q-11 94 15 159l26 65l21 12q22 12 63 2q52 -13 102 -23l60 -12l70 -28l27 14l49 -7l42 7l112 -28q4 -7 12 -22q12 -22 -5 -55l28 -70l-1 -27q-40 -49 -119 -147q-119 -148 -180 -176h-280l-22 98l-13 14q1 22 2 65q2 65 -9 159z " />
<glyph unicode="&#xc4;" horiz-adv-x="1479" d="M447 1599q0 45 32 77t77 32q46 0 78 -32t32 -77t-32 -77t-75 -32q-45 0 -77 32t-32 77h-3zM463 725q-11 95 15 159l26 65l21 12q22 12 63 2q52 -13 102 -23l60 -12l70 -28l27 14l49 -7l42 7l112 -28q4 -7 12 -22q12 -22 -5 -55l28 -70l-1 -27q-40 -49 -119 -147 q-119 -148 -180 -176h-280l-22 98l-13 14q1 22 2 65q2 64 -9 159zM799 1599q0 45 32 77t77 32t77 -32t32 -77t-32 -77t-77 -32t-77 32t-32 77z" />
<glyph unicode="&#xc5;" horiz-adv-x="1479" d="M466 725q-10 95 15 159l26 65l21 12q22 12 63 2q52 -13 102 -23l60 -12l70 -28l27 14l49 -7l42 7l112 -28q4 -7 12 -22q12 -22 -5 -55l28 -70l-1 -27q-40 -49 -119 -147q-119 -148 -180 -176h-280l-22 98l-13 14q1 22 2 65q1 64 -9 159zM540 1510q0 79 56 135t135 56 t135 -56t56 -135t-56 -135t-135 -56t-135 56t-56 135zM607 1510q0 -50 36 -86t87 -36t87 36t36 86q0 51 -36 87t-87 36t-87 -36t-36 -87z" />
<glyph unicode="&#xc6;" horiz-adv-x="1821" d="M-27 0v37q44 2 75 19q31 18 69 65q16 19 43 62q21 32 52 90l412 771q37 68 58 120q19 47 19 73q0 17 -6 29t-20 21q-16 13 -53 21q-39 8 -92 11v37h1111l15 -298h-34q-6 52 -18 91q-12 38 -32 66q-14 19 -33 33q-21 15 -45 23q-16 5 -48 8q-35 3 -88 3h-332v-536h257 q116 0 162 43q47 44 54 154h36v-471h-36q-12 100 -33 135t-69 56q-11 6 -39 9t-75 3h-257v-449q0 -92 7 -109q7 -18 30 -30q11 -6 30 -9t48 -3h182q109 0 168 18t114 70q37 34 67 79q32 48 53 100h38l-108 -341h-1018v37h51q42 0 72 12q31 12 50 36q12 17 18 55q6 39 6 99 v286h-396l-124 -233q-38 -72 -53 -109q-18 -44 -18 -64q0 -28 30 -52q29 -23 126 -31v-37h-426zM478 598h357v684z" />
<glyph unicode="&#xc7;" horiz-adv-x="1366" d="M437 510q-78 176 36 473q27 6 80 17q80 17 158 -30l41 -26l56 -51l63 -42l28 -42l147 -105l76 -35l1 -48l-63 -52l-329 -166l-188 -83l-28 14q-26 59 -78 176zM522 -340q18 -2 26 -3t22 -1q52 0 86 33q35 33 35 77q0 29 -23 52q-22 22 -57 22h-11q-4 0 -14 -2l111 176h60 l-50 -79q62 -16 94 -54q31 -37 31 -92q0 -72 -60 -126t-155 -54q-10 0 -42 2q-25 2 -53 6v43z" />
<glyph unicode="&#xc8;" horiz-adv-x="1251" d="M288 675l84 129l195 160h3q84 79 171 40q79 -36 86 -38l1 -1q152 -65 90 -252l-62 -188q-74 -215 -250 -209l-177 6q-60 11 -88.5 33.5t-24.5 57.5l8 70q-120 63 -36 192zM406 1797h223l106 -345h-35z" />
<glyph unicode="&#xc9;" horiz-adv-x="1251" d="M288 675l84 129l195 160h3q84 79 171 40q79 -36 86 -38l1 -1q152 -65 90 -252l-62 -188q-74 -215 -250 -209l-177 6q-60 11 -88.5 33.5t-24.5 57.5l8 70q-120 63 -36 192zM524 1452l105 345h224l-295 -345h-34z" />
<glyph unicode="&#xca;" horiz-adv-x="1251" d="M288 675l84 129l195 160h3q84 79 171 40q79 -36 86 -38l1 -1q152 -65 90 -252l-62 -188q-74 -215 -250 -209l-177 6q-60 11 -88.5 33.5t-24.5 57.5l8 70q-120 63 -36 192zM348 1462l189 331h184l190 -331h-31l-273 213l-229 -213h-30z" />
<glyph unicode="&#xcb;" horiz-adv-x="1251" d="M285 675l84 129l195 160h3q84 79 171 40q79 -36 86 -38l1 -1q151 -65 90 -252l-62 -188q-74 -215 -250 -209l-177 6q-60 11 -88.5 33.5t-24.5 57.5l8 70q-120 63 -36 192zM341 1599q0 45 32 77t77 32q46 0 78 -32t32 -77t-32 -77t-75 -32q-45 0 -77 32t-32 77h-3z M693 1599q0 45 32 77t77 32t77 -32t32 -77t-32 -77t-77 -32t-77 32t-32 77z" />
<glyph unicode="&#xcc;" horiz-adv-x="682" d="M20 458q16 212 48 463l-2 2q32 251 159 287l128 36q120 -26 162 -111l42 -85q84 -188 93 -348q9 -159 -17 -255q-25 -94 -207 -247t-302 -54t-104 312zM119 1797h223l106 -345h-35z" />
<glyph unicode="&#xcd;" horiz-adv-x="682" d="M20 458q16 212 48 463l-2 2q32 251 159 287l128 36q120 -26 162 -111l42 -85q84 -188 93 -348q9 -159 -17 -255q-25 -94 -207 -247t-302 -54t-104 312zM236 1452l105 345h224l-295 -345h-34z" />
<glyph unicode="&#xce;" horiz-adv-x="682" d="M20 458q16 212 48 463l-2 2q32 251 159 287l128 36q120 -26 162 -111l42 -85q84 -188 93 -348q9 -159 -17 -255q-25 -94 -207 -247t-302 -54t-104 312zM60 1462l189 331h184l190 -331h-31l-273 213l-229 -213h-30z" />
<glyph unicode="&#xcf;" horiz-adv-x="682" d="M17 458q16 212 48 463l-2 2q32 251 159 287l128 36q120 -26 162 -111l42 -85q84 -188 93 -348q9 -159 -17 -255q-25 -94 -207 -247t-302 -54t-104 312zM53 1599q0 45 32 77t77 32q46 0 78 -32t32 -77t-32 -77t-75 -32q-45 0 -77 32t-32 77h-3zM405 1599q0 45 32 77t77 32 t77 -32t32 -77t-32 -77t-77 -32t-77 32t-32 77z" />
<glyph unicode="&#xd0;" horiz-adv-x="1479" d="M34 -2v37h51q42 0 75 14q31 13 49 42q11 17 15 54q5 42 5 94v438h-195v74h195v364q0 68 -7 104q-8 40 -21 56q-19 23 -48 33q-30 11 -68 11h-51v37h552q314 0 466 -72t249 -229q50 -81 74 -171q24 -92 24 -198q0 -286 -183 -486t-576 -200zM422 98q64 -14 117 -21 q49 -7 96 -7q231 0 384 163t153 442q0 281 -153 443t-392 162q-48 0 -96 -7q-54 -8 -109 -22v-501h393v-74h-393v-578z" />
<glyph unicode="&#xd1;" horiz-adv-x="1479" d="M387 542l30 20v49l-1 1q31 172 177 313l145 141q21 11 171 -103l150 -114l42 -63l-7 -119l-56 -231q16 -32 9 -57l-8 -26h-63l-196 41l-391 91q-32 38 -2 57zM417 1464q5 136 57 198q52 61 131 61q21 0 39 -3q21 -3 35 -10q44 -16 128 -71q83 -54 123 -54q32 0 56 27 q25 28 38 112h31q1 -93 -24 -147t-72 -84q-24 -16 -47 -24q-24 -8 -47 -8q-37 0 -88 20q-49 19 -108 60q-62 43 -85 52t-43 9q-19 0 -36 -9t-29 -27l1 -1q-5 -7 -12 -33q-5 -18 -16 -68h-32z" />
<glyph unicode="&#xd2;" horiz-adv-x="1479" d="M213 637q-49 183 81 375q130 193 253 184q125 -9 237 7q115 16 195 -38l79 -54l133 -181q14 -29 41 -86q40 -86 15 -138q-27 -55 -41 -109l-15 -57q-11 -128 -126 -224q-117 -97 -189 -128q-74 -32 -234 -3q-160 28 -270 149q-110 120 -159 303zM511 1797h223l106 -345 h-35z" />
<glyph unicode="&#xd3;" horiz-adv-x="1479" d="M213 637q-49 183 81 375q130 193 253 184q125 -9 237 7q115 16 195 -38l79 -54l133 -181q14 -29 41 -86q40 -86 15 -138q-27 -55 -41 -109l-15 -57q-11 -128 -126 -224q-117 -97 -189 -128q-74 -32 -234 -3q-160 28 -270 149q-110 120 -159 303zM628 1452l105 345h224 l-295 -345h-34z" />
<glyph unicode="&#xd4;" horiz-adv-x="1479" d="M213 637q-49 183 81 375q130 193 253 184q125 -9 237 7q115 16 195 -38l79 -54l133 -181q14 -29 41 -86q40 -86 15 -138q-27 -55 -41 -109l-15 -57q-11 -128 -126 -224q-117 -97 -189 -128q-74 -32 -234 -3q-160 28 -270 149q-110 120 -159 303zM452 1462l189 331h184 l190 -331h-31l-273 213l-229 -213h-30z" />
<glyph unicode="&#xd5;" horiz-adv-x="1479" d="M214 636q-50 183 81 375q130 193 253 184q125 -9 237 7q115 16 195 -38l79 -54l133 -181q14 -29 41 -86q41 -85 15 -138q-27 -55 -41 -109l-15 -57q-11 -128 -126 -224q-117 -97 -189 -128q-73 -31 -234 -3q-160 28 -270 149q-109 120 -159 303zM415 1464q5 136 57 198 q52 61 131 61q21 0 39 -3q21 -3 35 -10q44 -16 128 -71q83 -54 123 -54q32 0 56 27q25 28 38 112h31q1 -93 -24 -147t-72 -84q-24 -16 -47 -24q-24 -8 -47 -8q-37 0 -88 20q-49 19 -108 60q-62 43 -85 52t-43 9q-19 0 -36 -9t-29 -27l1 -1q-5 -7 -12 -33q-5 -18 -16 -68h-32 z" />
<glyph unicode="&#xd6;" horiz-adv-x="1479" d="M210 637q-50 183 81 375q130 193 253 184q125 -9 237 7q115 16 195 -38l79 -54l133 -181q14 -29 41 -86q41 -86 15 -138q-27 -55 -41 -109l-15 -57q-11 -128 -126 -224q-117 -97 -189 -128q-73 -32 -234 -3q-160 28 -270 149q-109 120 -159 303zM445 1599q0 45 32 77 t77 32q46 0 78 -32t32 -77t-32 -77t-75 -32q-45 0 -77 32t-32 77h-3zM797 1599q0 45 32 77t77 32t77 -32t32 -77t-32 -77t-77 -32t-77 32t-32 77z" />
<glyph unicode="&#xd7;" horiz-adv-x="1155" d="M165 328l353 353l-352 352l58 58l352 -352l352 352l56 -57l-352 -352l354 -354l-57 -58l-354 354l-353 -353z" />
<glyph unicode="&#xd8;" horiz-adv-x="1479" d="M77 691q0 295 196 495q197 201 472 201l3 -1q115 0 216 -37q104 -38 191 -112l131 162l58 -44l-133 -167q103 -112 150 -228q47 -117 47 -273q0 -172 -61 -310q-61 -139 -183 -246q-96 -82 -198 -122q-105 -41 -216 -41q-101 0 -217 38q-114 38 -198 105l-129 -159 l-59 47l132 164q-99 102 -151 236q-51 132 -51 292zM303 697q0 -115 18 -217q18 -103 54 -191l691 848q-58 91 -139 136t-188 45q-47 0 -84 -6q-34 -6 -64 -17q-39 -15 -71 -39q-33 -24 -63 -57q-79 -89 -117 -216q-37 -126 -37 -286zM419 218q27 -40 56 -71q27 -29 60 -49 q45 -28 95 -42q51 -14 104 -14q103 0 172 32q67 31 126 98q58 65 100 186q42 120 42 300q0 56 -5 119q-4 51 -14 109l1 -2q-6 32 -20 84q-11 41 -32 96z" />
<glyph unicode="&#xd9;" horiz-adv-x="1479" d="M400 737l10 90l1 1q110 194 317 108l207 -86q224 -156 164 -281l-60 -125q-141 -94 -270 -45q-128 49 -255 149q-124 99 -114 189zM562 1797h223l106 -345h-35z" />
<glyph unicode="&#xda;" horiz-adv-x="1479" d="M400 737l10 90l1 1q110 194 317 108l207 -86q224 -156 164 -281l-60 -125q-141 -94 -270 -45q-128 49 -255 149q-124 99 -114 189zM631 1452l105 345h224l-295 -345h-34z" />
<glyph unicode="&#xdb;" horiz-adv-x="1479" d="M400 737l10 90l1 1q110 194 317 108l207 -86q224 -156 164 -281l-60 -125q-141 -94 -270 -45q-128 49 -255 149q-124 99 -114 189zM502 1462l189 331h184l190 -331h-31l-273 213l-229 -213h-30z" />
<glyph unicode="&#xdc;" horiz-adv-x="1479" d="M397 737l10 90l1 1q110 194 317 108l207 -86q224 -156 164 -281l-60 -125q-141 -94 -270 -45q-128 49 -255 149q-125 99 -114 189zM496 1599q0 45 32 77t77 32q46 0 78 -32t32 -77t-32 -77t-75 -32q-45 0 -77 32t-32 77h-3zM848 1599q0 45 32 77t77 32t77 -32t32 -77 t-32 -77t-77 -32t-77 32t-32 77z" />
<glyph unicode="&#xdd;" horiz-adv-x="1479" d="M464 651v42q2 17 6 52q6 52 21 88q16 37 9 82l-8 45q17 -5 183 40l167 45l35 -7q0 -16 11 -30l11 -13l97 -98v-21l28 -21v-49q-15 -89 -121 -235q-109 -151 -117 -163v-1q-11 -17 -23 -15l-12 1l-35 35l-63 77h-21l-28 35l-84 70h-28zM667 1452l105 345h224l-295 -345 h-34z" />
<glyph unicode="&#xde;" horiz-adv-x="1139" d="M37 -2v37h38q46 0 80 14t53 42q10 13 15 51q5 42 5 96v868q0 113 -11 141q-10 26 -48 49q-21 11 -42 17q-23 6 -50 6h-40v37h578v-37h-40q-22 0 -46 -6q-23 -6 -49 -18q-30 -13 -45 -48t-15 -134l-1 -64h74q75 0 131 -3t93 -9q107 -19 180 -65q71 -44 118 -122 q21 -35 34 -80q12 -42 12 -89q0 -76 -29 -143t-78 -113q-50 -47 -111 -75t-161 -42q-18 -2 -66 -3q-64 -2 -126 -2h-70v-61q0 -128 35 -168q35 -39 119 -39h41v-37h-578zM420 378h44q64 0 109 7q47 7 82 21q89 37 133 108q43 70 43 165q0 76 -31 138q-32 63 -81 99 q-28 18 -54 29q-29 12 -60 18q-19 5 -54 6q-46 2 -84 2l-47 2v-595z" />
<glyph unicode="&#xdf;" d="M39 -3v36q61 5 86 21t36 45q5 16 8 45q3 32 3 78v741q0 125 24 213q24 89 70 141t113 78t151 26q162 0 257 -92t95 -234q0 -51 -14 -98q-13 -43 -41 -82q-19 -27 -54 -51t-84 -45q135 -41 204 -139q69 -99 69 -260q0 -175 -91 -305q-92 -131 -244 -131q-87 0 -140 48 t-53 114q0 42 21 65t57 23q39 0 60 -21t21 -57q0 -10 -1 -15t-3 -17q-5 -18 -5 -21q-2 -12 -2 -15q0 -10 4 -17t12 -15t18 -11t24 -3q29 0 55 14q25 14 45 39q26 35 38 89t12 127q0 208 -74 330q-74 121 -222 132v57q107 0 161 63t54 209q0 133 -53 194q-52 60 -140 60 q-81 0 -132 -64t-51 -255v-1037z" />
<glyph unicode="&#xe0;" horiz-adv-x="909" d="M260 1390h223l106 -345h-35zM312 657v36q0 37 57 68q60 33 80 52q23 21 39 8q15 -13 18 -26l3 -12h1q4 -15 12 -46q11 -43 23 -72q1 -6 3 -17q3 -16 3 -32q0 -14 -14 -36q-13 -21 -71 -21q-41 0 -103 2q-47 1 -51 96z" />
<glyph unicode="&#xe1;" horiz-adv-x="909" d="M312 657v36q0 37 57 68q60 33 80 52q23 21 39 8q15 -13 18 -26l3 -12h1q4 -15 12 -46q11 -43 23 -72q1 -6 3 -17q3 -16 3 -32q0 -14 -14 -36q-13 -21 -71 -21q-41 0 -103 2q-47 1 -51 96zM353 1045l105 345h224l-295 -345h-34z" />
<glyph unicode="&#xe2;" horiz-adv-x="909" d="M177 1054l189 331h184l190 -331h-31l-273 213l-229 -213h-30zM312 657v36q0 37 57 68q60 33 80 52q23 21 39 8q15 -13 18 -26l3 -12h1q4 -15 12 -46q11 -43 23 -72q1 -6 3 -17q3 -16 3 -32q0 -14 -14 -36q-13 -21 -71 -21q-41 0 -103 2q-47 1 -51 96z" />
<glyph unicode="&#xe3;" horiz-adv-x="909" d="M140 1096q4 136 57 198q52 61 131 61q21 0 39 -3q21 -3 35 -10q44 -16 128 -71q82 -54 123 -54q32 0 56 27q25 28 38 112h31q2 -93 -24 -147t-72 -84q-24 -16 -47 -24q-24 -8 -47 -8q-37 0 -88 20q-50 19 -108 60q-62 43 -85 52t-43 9t-36 -9q-17 -9 -29 -27l1 -1 q-4 -7 -12 -33q-5 -18 -16 -68h-32zM313 656v36q0 36 57 68q60 33 80 52q23 21 39 8q15 -13 18 -26l3 -12h1q4 -15 12 -46q11 -43 23 -72q1 -6 3 -17q3 -17 3 -32q0 -14 -14 -36q-14 -21 -71 -21q-41 0 -103 2q-46 2 -51 96z" />
<glyph unicode="&#xe4;" horiz-adv-x="909" d="M170 1228q0 45 32 77t77 32q46 0 78 -32t32 -77t-32 -77t-75 -32q-45 0 -77 32t-32 77h-3zM309 657v36q0 37 57 68q60 33 80 52q23 21 39 8q15 -13 18 -26l3 -12h1q4 -15 12 -46q11 -43 23 -72q1 -6 3 -17q3 -16 3 -32q0 -14 -14 -36q-14 -21 -71 -21q-41 0 -103 2 q-46 1 -51 96zM522 1228q0 45 32 77t77 32t77 -32t32 -77t-32 -77t-77 -32t-77 32t-32 77z" />
<glyph unicode="&#xe5;" horiz-adv-x="909" d="M267 1235q0 79 56 135t135 56t135 -56t56 -135t-56 -135t-135 -56t-135 56t-56 135zM312 657v36q0 37 57 68q60 33 80 52q23 21 39 8q15 -13 18 -26l3 -12h1q4 -15 12 -46q11 -43 23 -72q1 -6 3 -17q3 -16 3 -32q0 -14 -14 -36q-13 -21 -71 -21q-41 0 -103 2 q-47 1 -51 96zM334 1235q0 -50 36 -86t87 -36t87 36t36 86q0 51 -36 87t-87 36t-87 -36t-36 -87z" />
<glyph unicode="&#xe6;" horiz-adv-x="1366" d="M75 200q0 86 44 148q43 62 171 126q72 37 147 70q69 30 129 51v92q0 109 -40 153q-40 45 -108 45q-32 0 -59 -8q-25 -7 -45 -24t-29 -35t-9 -38q0 -84 -9 -109t-27 -39q-9 -6 -20 -9q-10 -3 -24 -3q-19 0 -34 6t-26 17q-16 18 -23 34q-8 19 -8 38q0 53 36 105 q35 51 116 88q39 18 85 27t99 9q124 0 187 -36q64 -36 83 -88q21 27 50 52q25 22 51 36q36 18 78 27t90 9q144 0 234 -97q90 -98 90 -280l-568 3v-74q0 -200 72 -286q72 -85 184 -85q50 0 93 15q44 15 83 45q24 18 52 59q25 37 55 99l32 -22q-18 -82 -57 -149 q-40 -69 -99 -122q-45 -40 -97 -59q-55 -20 -119 -20q-53 0 -100 12q-46 12 -85 36q-18 11 -45 39q-28 29 -65 74l-20 -15q-14 -11 -36 -27q-6 -5 -23.5 -18.5t-24.5 -19.5q-20 -15 -30 -21q-45 -26 -99 -43q-51 -16 -108 -16q-95 0 -159 66q-65 67 -65 162zM240 263 q0 -79 48 -129t113 -50q39 0 82 21q45 22 126 85q-20 43 -34 117q-13 69 -13 141v89q-65 -20 -129 -53q-63 -32 -119 -75q-38 -29 -56 -65t-18 -81zM735 636h378q-1 125 -53 183q-51 57 -131 57l-2 2q-79 0 -135 -63q-55 -63 -57 -179z" />
<glyph unicode="&#xe7;" horiz-adv-x="909" d="M201 706l4 -2q-21 135 66 197l87 62h42q42 0 84 -83q42 -84 126 -129l84 -45q15 -32 8 -75l-8 -44q-36 -15 -61 -53l-24 -38q-73 -74 -117 -48l-44 26q-62 -21 -101 3l-39 24q-58 0 -75 39l-17 39q1 -2 3 -5q3 -4 -18 132zM299 -342q18 -2 26 -3t22 -1q51 0 86 33t35 77 q0 29 -23 52q-22 22 -57 22h-11q-4 0 -14 -2l111 176h60l-50 -79q62 -16 94 -54q31 -37 31 -92q0 -72 -60 -126t-155 -54q-10 0 -42 2q-25 2 -53 6v43z" />
<glyph unicode="&#xe8;" horiz-adv-x="909" d="M204 616q8 86 33 216t93 145l67 15l112 -14l59 -18q68 -26 62 -143q-6 -115 -32 -221q-25 -103 -65 -111l-39 -8q-13 0 -39 1q-40 2 -149 27q-110 25 -102 111zM285 1390h223l106 -345h-35z" />
<glyph unicode="&#xe9;" horiz-adv-x="909" d="M204 616q8 86 33 216t93 145l67 15l112 -14l59 -18q68 -26 62 -143q-6 -115 -32 -221q-25 -103 -65 -111l-39 -8q-13 0 -39 1q-40 2 -149 27q-110 25 -102 111zM366 1045l105 345h224l-295 -345h-34z" />
<glyph unicode="&#xea;" horiz-adv-x="909" d="M204 616q8 86 33 216t93 145l67 15l112 -14l59 -18q68 -26 62 -143q-6 -115 -32 -221q-25 -103 -65 -111l-39 -8q-13 0 -39 1q-40 2 -149 27q-110 25 -102 111zM214 1054l189 331h184l190 -331h-31l-273 213l-229 -213h-30z" />
<glyph unicode="&#xeb;" horiz-adv-x="909" d="M201 616q7 86 33 216q25 130 93 145l67 15l112 -14l59 -18q68 -26 62 -143q-6 -115 -32 -221q-25 -103 -65 -111l-39 -8q-13 0 -39 1q-40 2 -149 27t-102 111zM207 1227q0 45 32 77t77 32q46 0 78 -32t32 -77t-32 -77t-75 -32q-45 0 -77 32t-32 77h-3zM559 1227 q0 45 32 77t77 32t77 -32t32 -77t-32 -77t-77 -32t-77 32t-32 77z" />
<glyph unicode="&#xec;" horiz-adv-x="569" d="M60 831l276 112l41 -1v-736q0 -87 13 -114q14 -28 39 -42q13 -8 35 -11t54 -3v-36h-445v36q68 0 90 13q23 14 36 43q6 15 9 44t3 71v353q0 59 -2 123q-1 47 -6 70q-8 33 -22 44q-15 12 -41 12q-14 0 -30 -3q-14 -3 -36 -11zM77 1390h223l106 -345h-35z" />
<glyph unicode="&#xed;" horiz-adv-x="569" d="M60 831l276 112l41 -1v-736q0 -87 13 -114q14 -28 39 -42q13 -8 35 -11t54 -3v-36h-445v36q68 0 90 13q23 14 36 43q6 15 9 44t3 71v353q0 59 -2 123q-1 47 -6 70q-8 33 -22 44q-15 12 -41 12q-14 0 -30 -3q-14 -3 -36 -11zM169 1045l105 345h224l-295 -345h-34z" />
<glyph unicode="&#xee;" horiz-adv-x="569" d="M13 1054l189 331h184l190 -331h-31l-273 213l-229 -213h-30zM60 831l276 112l41 -1v-736q0 -87 13 -114q14 -28 39 -42q13 -8 35 -11t54 -3v-36h-445v36q68 0 90 13q23 14 36 43q6 15 9 44t3 71v353q0 59 -2 123q-1 47 -6 70q-8 33 -22 44q-15 12 -41 12q-14 0 -30 -3 q-14 -3 -36 -11z" />
<glyph unicode="&#xef;" horiz-adv-x="569" d="M-1 1227q0 45 32 77t77 32q46 0 78 -32t32 -77t-32 -77t-75 -32q-45 0 -77 32t-32 77h-3zM57 831l276 112l41 -1v-736q0 -87 13 -114q13 -28 39 -42q13 -8 35 -11q23 -3 54 -3v-36h-445v36q68 0 90 13q23 14 36 43q6 15 9 44t3 71v353q0 59 -2 123q-1 47 -6 70 q-8 33 -22 44q-15 12 -41 12q-13 0 -30 -3q-14 -3 -36 -11zM351 1227q0 45 32 77t77 32t77 -32t32 -77t-32 -77t-77 -32t-77 32t-32 77z" />
<glyph unicode="&#xf0;" d="M65 442q0 105 35 198q34 91 104 168q58 64 129 96q72 32 153 32q26 0 48 -3q24 -3 42 -10q15 -4 36 -17q5 -3 11 -7t14.5 -10t13.5 -9q-40 80 -85 152q-45 71 -101 138l-247 -135l-30 55l233 132q-68 70 -99 95t-89 63l27 43q62 -31 122 -69q64 -41 125 -87l249 139 l34 -55l-229 -130q191 -165 288 -363q97 -197 97 -383q0 -139 -57 -256t-161 -182q-52 -31 -110 -48q-59 -17 -122 -17q-179 0 -305 134t-126 336zM248 519q0 -136 41 -251q41 -114 110 -170q34 -28 71 -42t73 -14q91 0 154 79t63 256v1q0 225 -79 361t-207 136 q-96 0 -161 -81q-65 -82 -65 -275z" />
<glyph unicode="&#xf1;" d="M194 1096q4 136 57 198q52 61 131 61q21 0 39 -3q21 -3 35 -10q44 -16 128 -71q82 -54 123 -54q32 0 56 27q25 28 38 112h31q2 -93 -24 -147t-72 -84q-24 -16 -47 -24q-24 -8 -47 -8q-37 0 -88 20q-50 19 -108 60q-62 43 -85 52q-22 9 -43 9q-20 0 -36 -9q-17 -9 -29 -27 l1 -1q-4 -7 -12 -33q-5 -18 -16 -68h-32zM215 797l24 33l98 63l21 42q84 104 168 35l84 -69l139 -133q3 -1 9 -2q10 -2 41 -33q30 -30 49 -63q18 -31 7 -57q-11 -27 -22 -35q-52 -39 -132 -98q-120 -88 -183 -45l-63 44l-56 56q-19 23 -57 68q-54 64 -104 114q-47 47 -23 80 z" />
<glyph unicode="&#xf2;" d="M213 622l21 54l138 212q156 178 278 23t147 -192q26 -38 18 -77q-8 -40 -54 -92q-47 -52 -126 -72q-84 -21 -126 -26q-47 -5 -83 9q-36 13 -135 60t-78 101zM301 1390h223l106 -345h-35z" />
<glyph unicode="&#xf3;" d="M213 622l21 54l138 212q156 178 278 23t147 -192q26 -38 18 -77q-8 -40 -54 -92q-47 -52 -126 -72q-84 -21 -126 -26q-47 -5 -83 9q-36 13 -135 60t-78 101zM394 1045l105 345h224l-295 -345h-34z" />
<glyph unicode="&#xf4;" d="M213 622l21 54l138 212q156 178 278 23t147 -192q26 -38 18 -77q-8 -40 -54 -92q-47 -52 -126 -72q-84 -21 -126 -26q-47 -5 -83 9q-36 13 -135 60t-78 101zM242 1054l189 331h184l190 -331h-31l-273 213l-229 -213h-30z" />
<glyph unicode="&#xf5;" d="M193 1096q5 136 57 198q52 61 131 61q21 0 39 -3q21 -3 35 -10q44 -16 128 -71q83 -54 123 -54q32 0 56 27q25 28 38 112h31q1 -93 -24 -147t-72 -84q-24 -16 -47 -24q-24 -8 -47 -8q-37 0 -88 20q-49 19 -108 60q-62 43 -85 52q-22 9 -43 9q-19 0 -36 -9t-29 -27l1 -1 q-5 -7 -12 -33q-5 -18 -16 -68h-32zM214 621l21 54l138 212q156 178 278 23q121 -154 147 -192t18 -77q-8 -40 -54 -92q-46 -53 -126 -72q-84 -21 -126 -26q-47 -5 -83 9t-135 60q-99 47 -78 101z" />
<glyph unicode="&#xf6;" d="M210 622l21 54l138 212q156 178 278 23q121 -155 147 -192q26 -38 18 -77q-8 -40 -54 -92t-126 -72q-84 -21 -126 -26q-47 -5 -83 9q-36 13 -135 60t-78 101zM223 1227q0 45 32 77t77 32q46 0 78 -32t32 -77t-32 -77t-75 -32q-45 0 -77 32t-32 77h-3zM575 1227 q0 45 32 77t77 32t77 -32t32 -77t-32 -77t-77 -32t-77 32t-32 77z" />
<glyph unicode="&#xf7;" horiz-adv-x="1124" d="M23 640v82h1078v-82h-1078zM472 367q0 36 26 62t63 26t63 -26t26 -62t-26 -62t-62 -26t-62 26t-26 62h-2zM474 988q0 36 26 62t63 26q36 0 62 -26t26 -62t-26 -62t-63 -26q-36 0 -62 26t-26 62z" />
<glyph unicode="&#xf8;" d="M37 -26l141 159q-49 61 -78 152q-28 88 -28 168q0 119 60 240t162 186q51 31 107 48q54 16 117 16v-3q82 0 149 -26t137 -84l133 147l46 -43l-135 -152q54 -69 80 -145q27 -78 27 -167q0 -120 -58 -245q-59 -127 -160 -191q-51 -32 -110 -49q-55 -16 -122 -16 q-81 0 -147 26q-62 25 -139 89l-135 -153zM259 533q0 -65 10 -128q11 -66 30 -135l404 449q-51 88 -101 123t-116 35q-97 0 -162 -80t-65 -264zM327 204q51 -92 100 -126q50 -35 118 -35q99 0 162 80q63 79 63 279h-2q0 61 -9 124q-9 61 -29 128z" />
<glyph unicode="&#xf9;" d="M307 1390h223l106 -345h-35zM329 603q0 32 12 134l12 102v-1q36 158 153 153l117 -5q55 -6 73 -68l18 -62q3 -22 8 -67q8 -67 -66 -195t-118 -137l-45 -9q-128 -6 -146 59t-18 96z" />
<glyph unicode="&#xfa;" d="M329 603q0 32 12 134l12 102v-1q36 158 153 153l117 -5q55 -6 73 -68l18 -62q3 -22 8 -67q8 -67 -66 -195t-118 -137l-45 -9q-128 -6 -146 59t-18 96zM370 1045l105 345h224l-295 -345h-34z" />
<glyph unicode="&#xfb;" d="M234 1054l189 331h184l190 -331h-31l-273 213l-229 -213h-30zM329 603q0 32 12 134l12 102v-1q36 158 153 153l117 -5q55 -6 73 -68l18 -62q3 -22 8 -67q8 -67 -66 -195t-118 -137l-45 -9q-128 -6 -146 59t-18 96z" />
<glyph unicode="&#xfc;" d="M223 1227q0 45 32 77t77 32q46 0 78 -32t32 -77t-32 -77t-75 -32q-45 0 -77 32t-32 77h-3zM326 603q0 32 12 134l12 102v-1q36 158 153 153l117 -5q55 -6 73 -68l18 -62q3 -22 8 -67q7 -67 -66 -195q-74 -128 -118 -137l-45 -9q-128 -6 -146 59t-18 96zM575 1227 q0 45 32 77t77 32t77 -32t32 -77t-32 -77t-77 -32t-77 32t-32 77z" />
<glyph unicode="&#xfd;" d="M229 582l56 78l54 30l20 24l57 13l117 85l136 99l56 13l51 -44l8 -36l-22 -35l-5 -32l-67 -77l-19 -52l-35 -81l-81 -97l-21 -35l-36 -16l-88 30l-170 104zM403 1045l105 345h224l-295 -345h-34z" />
<glyph unicode="&#xfe;" d="M-9 -401l25 -1q26 -1 52 5q21 5 43 17q19 10 30 35t11 123v1349q0 87 -8 113q-8 24 -24 36q-9 6 -21 9t-27 3q-12 0 -27 -3q-11 -2 -34 -11l-16 32l282 114h38v-697q71 122 143 170t151 48q69 0 126 -27q58 -27 104 -81q56 -65 85 -152q28 -84 28 -192q0 -120 -34 -216 q-35 -98 -102 -176q-56 -64 -126 -95q-72 -32 -156 -32q-34 0 -69 5q-32 5 -59 15q-18 7 -42 23q-25 17 -48 37v-279q0 -93 12 -118q12 -24 41 -40q15 -8 39 -11q26 -3 63 -3v-38h-480v38zM318 322q0 -56 3 -92q3 -39 7 -54q13 -58 68 -102t137 -44q48 0 90 20q40 19 72 59 q41 51 60 123q20 74 20 164q0 103 -23 186q-23 82 -69 137q-32 40 -69 59q-38 20 -81 20q-24 0 -48 -6t-48 -18l1 -2q-18 -9 -48 -36t-72 -72v-342z" />
<glyph unicode="&#xff;" d="M226 582l56 78l54 30l20 24l57 13l117 85l136 99l56 13l51 -44l8 -36l-22 -35l-5 -32l-67 -77l-19 -52l-35 -81l-81 -97l-21 -35l-36 -16l-88 30l-170 104zM261 1228q0 45 32 77t77 32q46 0 78 -32t32 -77t-32 -77t-75 -32q-45 0 -77 32t-32 77h-3zM613 1228q0 45 32 77 t77 32t77 -32t32 -77t-32 -77t-77 -32t-77 32t-32 77z" />
<glyph unicode="&#x152;" horiz-adv-x="1821" d="M73 677q0 129 36 243q37 116 106 212q86 119 208 177q124 59 285 59q3 0 11 -0.5t22 -1t27 -0.5q49 -2 134 -6q70 -2 138 -3q90 -2 130 -2h473l12 -298h-32q-11 52 -23 96q-11 38 -21 53q-12 20 -32 35q-21 16 -45 26q-15 7 -52 10q-36 3 -91 3l-255 2v-535h183 q115 0 163 48t47 149h39v-472h-39q-9 123 -51 162t-159 39h-183v-448q0 -81 10 -104t33 -37q7 -4 27 -6q26 -2 51 -2h104q122 0 168 13q48 13 99 60q38 35 69 82q32 49 59 110h40l-108 -340h-657q-6 0 -48 -3q-6 0 -120 -7q-13 -1 -32.5 -2t-33 -2t-24.5 -1q-48 -2 -55 -2 q-169 0 -309 86q-139 85 -222 251q-40 81 -61 171q-21 88 -21 185zM304 667q0 -155 42 -300q42 -146 136 -228q48 -42 103 -62q57 -21 123 -21q76 0 123 26q46 25 64 72q7 22 12 69q5 52 5 117l-1 700q0 130 -18 172t-53 62q-24 14 -57 22q-29 7 -71 7q-125 0 -219 -73 q-95 -74 -141 -223q-24 -76 -36 -161q-12 -84 -12 -179z" />
<glyph unicode="&#x153;" horiz-adv-x="1479" d="M67 441q0 230 123 365t299 135q106 0 186 -44q79 -43 126 -114q59 85 123 123q64 37 159 37q74 0 134 -24q58 -23 106 -74q47 -49 69 -117q22 -66 19 -155l-545 -2q-2 -16 -2 -21v-17q0 -94 33 -196q33 -103 99 -152q34 -26 69 -38q36 -12 75 -12q80 0 141 51 q62 51 98 167l33 -17q-36 -193 -126 -280t-215 -87q-96 0 -166 47t-104 114q-61 -80 -141 -120q-80 -41 -177 -41q-176 0 -296 129t-120 343zM255 539q0 -127 26 -231q25 -102 77 -176q32 -46 70 -68q40 -23 84 -23q88 0 147 74t59 261l-1 4q0 232 -68 371q-67 138 -195 138 q-36 0 -86 -27q-50 -28 -77 -91q-18 -41 -27 -99t-9 -133zM865 640h351q1 33 -5 68q-7 36 -19 65q-18 49 -61 77q-44 29 -90 29q-68 0 -119 -60t-57 -179z" />
<glyph unicode="&#x178;" horiz-adv-x="1479" d="M461 651v42q2 17 6 52q6 52 21 88q16 37 9 82l-8 45q17 -5 183 40l167 45l35 -7q0 -16 11 -30l11 -13l97 -98v-21l28 -21v-49q-15 -89 -121 -235q-109 -151 -117 -163v-1q-11 -17 -23 -15l-12 1l-35 35l-63 77h-21l-28 35l-84 70h-28zM472 1599q0 45 32 77t77 32 q46 0 78 -32t32 -77t-32 -77t-75 -32q-45 0 -77 32t-32 77h-3zM824 1599q0 45 32 77t77 32t77 -32t32 -77t-32 -77t-77 -32t-77 32t-32 77z" />
<glyph unicode="&#x2c6;" horiz-adv-x="682" d="M60 1054l189 331h184l190 -331h-31l-273 213l-229 -213h-30z" />
<glyph unicode="&#x2dc;" horiz-adv-x="682" d="M23 1096q5 136 57 198q52 61 131 61q21 0 39 -3q21 -3 35 -10q44 -16 128 -71q83 -54 123 -54q32 0 56 27q25 28 38 112h31q1 -93 -24 -147t-72 -84q-24 -16 -47 -24q-24 -8 -47 -8q-37 0 -88 20q-49 19 -108 60q-62 43 -85 52q-22 9 -43 9q-19 0 -36 -9t-29 -27l1 -1 q-5 -7 -12 -33q-5 -18 -16 -68h-32z" />
<glyph unicode="&#x2000;" horiz-adv-x="898" />
<glyph unicode="&#x2001;" horiz-adv-x="1797" />
<glyph unicode="&#x2002;" horiz-adv-x="898" />
<glyph unicode="&#x2003;" horiz-adv-x="1797" />
<glyph unicode="&#x2004;" horiz-adv-x="599" />
<glyph unicode="&#x2005;" horiz-adv-x="449" />
<glyph unicode="&#x2006;" horiz-adv-x="299" />
<glyph unicode="&#x2007;" horiz-adv-x="299" />
<glyph unicode="&#x2008;" horiz-adv-x="224" />
<glyph unicode="&#x2009;" horiz-adv-x="359" />
<glyph unicode="&#x200a;" horiz-adv-x="99" />
<glyph unicode="&#x2013;" d="M-18 453v73h1059v-73h-1059z" />
<glyph unicode="&#x2014;" horiz-adv-x="2048" d="M-19 453v74h2085v-74h-2085z" />
<glyph unicode="&#x2018;" horiz-adv-x="682" d="M185 1067q0 60 22 113q23 54 66 102l4 2q31 33 72 59q43 28 98 47v-43q-53 -33 -86 -60q-34 -28 -54 -56q-13 -19 -21 -42q-7 -21 -7 -50q0 -16 3 -28q3 -13 9 -20t12 -12q5 -4 14 -4q2 0 12 2q3 1 16 5t24 6q14 2 18 2q41 0 72 -30t31 -75q0 -24 -8 -45q-8 -20 -24 -33 q-22 -21 -46 -29q-26 -9 -54 -9q-68 0 -120 57q-53 58 -53 141z" />
<glyph unicode="&#x2019;" horiz-adv-x="682" d="M192 1273q0 24 8 45q7 19 23 33q22 21 46 29q25 9 54 9q67 0 121 -57t54 -141q0 -60 -22 -113q-23 -54 -67 -103l2 6q-30 -33 -72 -59q-43 -27 -99 -48v47q52 31 87 60q36 29 53 54q14 21 20 42q6 23 6 48q0 16 -3 28q-3 11 -9 19q-7 8 -12 11q-6 3 -14 3q-2 0 -12 -2 q-8 -2 -17 -6q-3 -1 -24 -7q-11 -3 -20 -3q-41 0 -72 30t-31 75z" />
<glyph unicode="&#x201a;" horiz-adv-x="682" d="M201 -301q103 34 160 106t57 152q0 7 -2 17q-2 8 -6 15q-2 3 -6 7q-3 3 -8 3q-4 0 -17 -5q-10 -4 -31 -15q-9 -5 -18 -6q-12 -2 -20 -2q-49 0 -78 29t-29 80q0 49 38 84t92 35q66 0 117 -57t51 -152l-1 -3q0 -103 -72 -192t-227 -140v44z" />
<glyph unicode="&#x201c;" horiz-adv-x="909" d="M67 1069v4v-1v-3zM67 1072q1 98 66 184q67 88 192 128v-41q-89 -47 -126 -96q-38 -50 -38 -108q0 -17 3 -29q2 -10 8 -19q5 -8 11 -11t12 -3q12 0 36 8t40 8q41 0 71 -30t30 -74q0 -49 -37 -83q-38 -35 -93 -35q-67 0 -121 58q-54 59 -54 143zM545 1067q0 106 67 192 q68 87 190 123v-38q-100 -58 -132 -105t-32 -108q0 -13 3 -24q3 -9 8 -18q7 -8 12 -11q6 -3 12 -3q9 0 33 8t45 8q41 0 71 -30t30 -73q0 -49 -39 -85t-95 -36q-66 0 -119 57q-53 58 -53 142z" />
<glyph unicode="&#x201d;" horiz-adv-x="909" d="M64 1267q0 48 39 84t94 36q66 0 120 -57t54 -144l-5 -1q0 -104 -68 -192q-68 -87 -189 -123v42q100 57 132 104t32 108q0 14 -3 24q-3 9 -8 18q-5 8 -11 11t-13 3q-2 0 -12 -2q-8 -2 -18 -6t-21 -6q-14 -2 -21 -2q-42 0 -72 30t-30 73zM547 1270q0 49 37 83q38 35 91 35 q68 0 122 -59t54 -144h-1q0 -100 -66 -187q-67 -88 -192 -128v42q87 45 126 96t39 110q0 18 -3 30q-2 10 -8 19q-4 6 -11 10q-6 3 -12 3q-3 0 -15 -2q-10 -2 -20 -6t-21 -6q-14 -2 -19 -2q-41 0 -71 31t-30 75z" />
<glyph unicode="&#x201e;" horiz-adv-x="909" d="M64 81q0 48 39 84t94 36q66 0 120 -57t54 -144l-5 -1q0 -104 -68 -192q-68 -87 -189 -123v42q100 57 132 104t32 108q0 14 -3 24q-3 9 -8 18q-5 8 -11 11t-13 3q-2 0 -12 -2q-8 -2 -18 -6t-21 -6q-14 -2 -21 -2q-42 0 -72 30t-30 73zM547 83q0 49 37 83q38 35 91 35 q68 0 122 -59q54 -58 54 -144l-1 1q0 -100 -66 -187q-67 -88 -192 -128v42q87 45 126 96t39 110q0 17 -3 29q-3 11 -8 20q-4 6 -11 9q-6 3 -12 3q-3 0 -15 -2q-10 -2 -20 -6q-10 -5 -21 -6q-14 -2 -19 -2q-41 0 -71 31q-30 32 -30 75z" />
<glyph unicode="&#x2022;" horiz-adv-x="717" d="M112 677q0 104 73 177q74 74 178 74q103 0 177 -74t74 -177t-74 -177t-177 -74t-177 74t-74 177z" />
<glyph unicode="&#x2026;" horiz-adv-x="2048" d="M232 87l2 2q0 47 33 78q34 32 79 32q46 0 78 -33q32 -34 32 -79q0 -46 -33 -79t-79 -33t-79 33t-33 79zM915 85v2q0 47 33 78q34 32 79 32q46 0 79 -33t33 -79t-33 -79t-79 -33t-79 33t-33 79zM1596 83l2 2q0 46 32 78t78 32t79 -33t33 -79t-33 -79t-79 -33t-79 33 t-33 79z" />
<glyph unicode="&#x202f;" horiz-adv-x="359" />
<glyph unicode="&#x2039;" horiz-adv-x="682" d="M119 464l387 470h57l-244 -470l244 -472h-57z" />
<glyph unicode="&#x203a;" horiz-adv-x="682" d="M115 -8l243 470l-243 472h58l394 -472l-394 -470h-58z" />
<glyph unicode="&#x205f;" horiz-adv-x="449" />
<glyph unicode="&#x20ac;" d="M-21 578l23 78h74v48q0 11 2 35h-99l23 78h84q16 119 57 216t105 174q74 89 168 134t208 45q87 0 171 -22t169 -66v-299h-39q-14 161 -88 240q-75 80 -213 80q-79 0 -142 -42q-62 -41 -109 -126q-35 -66 -59 -149q-25 -87 -35 -187h591l-20 -76h-574l-3 -42 q-1 -14 -1 -42h552l-23 -78h-527q5 -107 25 -193q21 -87 59 -159q45 -83 105 -123q61 -41 135 -41q68 0 123 18q57 19 101 52q29 22 62 60q34 39 75 96l31 -20q-47 -73 -82 -116q-39 -48 -74 -77q-58 -47 -126 -71q-69 -24 -150 -24q-116 0 -204 48q-89 48 -152 143 q-51 78 -81 180q-31 104 -41 228h-101z" />
<glyph unicode="&#x2122;" horiz-adv-x="2007" d="M30 1155l20 202h728l22 -201h-34q-11 72 -53 107q-43 35 -141 35h-75v-579q0 -84 20 -107t86 -26v-36h-374v36q65 6 83 27t18 104v580h-76q-94 0 -135 -32q-40 -31 -55 -110h-34zM869 1320v37l285 2l273 -572l265 572h279v-37q-56 -2 -74 -12t-27 -33q-4 -9 -7 -33 q-3 -22 -3 -57v-468q0 -86 19 -106t93 -25v-36h-398v36q59 2 80 12q20 10 31 32q4 9 7 32q3 21 3 53v492l-307 -658h-32l-308 649v-482q0 -68 9 -89q9 -22 28 -32q11 -5 24 -8q15 -3 34 -3h36v-36h-306v36q56 0 75 10q20 11 29 31q5 11 6 33q2 30 2 57v466q0 77 -9 96 t-29 30q-12 5 -30 8q-19 3 -48 3z" />
<glyph unicode="&#xe000;" horiz-adv-x="895" d="M0 0v895h895v-895h-895z" />
<glyph unicode="&#xfb01;" horiz-adv-x="1139" d="M28 841v75h177q0 183 51 285q51 103 150 161q50 30 105 45t117 15q84 0 156 -29q70 -29 105 -72q15 -20 25 -44q9 -21 9 -41q0 -34 -23 -57t-54 -23q-34 0 -58 18t-81 99q-18 27 -34 41q-19 17 -37 27q-15 8 -32 11q-18 3 -39 3q-50 0 -102 -41q-50 -40 -70 -93 q-14 -38 -20 -99q-6 -63 -6 -153l-1 -55h383q44 0 92 2q33 1 53 5h44v-710q0 -111 27 -143t120 -33v-36h-456v36q48 0 81 11q31 10 45 32q11 15 15 48q5 37 5 84v485q0 47 -3 75q-3 27 -8 37q-8 15 -30 24t-144 9h-223v-596q0 -54 3 -89t9 -51q4 -10 14 -22q7 -9 23 -19 q22 -13 42 -21q18 -7 36 -7h42v-36h-500v36h36q70 0 102 39q31 38 31 171v596h-177z" />
<glyph unicode="&#xfb02;" horiz-adv-x="1139" d="M24 842v76h177q8 202 49 297q42 96 132 153q45 28 90 42q47 14 90 14q52 0 101 -18q48 -18 99 -56l141 74h40v-1210q0 -89 11 -117q10 -27 39 -42q13 -7 38 -12q24 -5 57 -6v-36h-455v36q34 2 59 6q24 4 42 14q20 11 32 37q12 27 12 119v630h-411v-593q0 -108 15 -141 t50 -53q18 -10 44 -14q27 -4 61 -3v-36h-503v36h40q57 0 92 32t35 171v600h-177zM366 916l412 1v298q-16 -18 -33 -27t-36 -9q-47 0 -105 84t-117 84q-15 0 -30 -5q-14 -5 -26 -15q-19 -16 -32 -36q-13 -21 -21 -50q-6 -21 -9 -80q-3 -58 -3 -155v-90z" />
</font>
</defs>
</svg>
